<svg width="15" height="18" viewBox="0 0 15 18" fill="none" xmlns="http://www.w3.org/2000/svg">
<path d="M14.2536 4.80729L10.212 0.895194C9.9662 0.656085 9.63079 0.519926 9.28541 0.519926L1.67376 0.5C0.750537 0.5 0 1.2439 0 2.16048V15.8362C0 16.7362 0.773784 17.5 1.69037 17.5H12.9484C13.8484 17.5 14.579 16.7528 14.579 15.8329V5.601C14.579 5.29215 14.4628 5.00986 14.2536 4.80729ZM10.1953 2.72836L12.2842 4.7475H10.5573C10.3647 4.7475 10.1954 4.59807 10.1954 4.4287L10.1953 2.72836ZM12.9484 16.1716H1.69037C1.5044 16.1716 1.32838 16.0089 1.32838 15.8329L1.32845 2.16045C1.32845 1.98444 1.49118 1.82836 1.67383 1.82836L8.86703 1.84828V4.42867C8.86703 5.33529 9.62421 6.07586 10.5574 6.07586H13.2507L13.2506 15.8329C13.2506 15.9989 13.1377 16.1716 12.9484 16.1716Z" fill="#262626"/>
<path d="M4.64941 5.57772C4.28411 5.57772 3.98522 5.87661 3.98522 6.24191V13.4152C3.98522 13.7805 4.28411 14.0794 4.64941 14.0794C5.01472 14.0794 5.31361 13.7805 5.31361 13.4152V6.24191C5.31361 5.87661 5.01472 5.57772 4.64941 5.57772Z" fill="#262626"/>
<path d="M7.30618 7.30462C6.94088 7.30462 6.64199 7.60351 6.64199 7.96881V13.4152C6.64199 13.7805 6.94088 14.0794 7.30618 14.0794C7.67149 14.0794 7.97038 13.7805 7.97038 13.4152V7.96881C7.97038 7.60351 7.67149 7.30462 7.30618 7.30462Z" fill="#262626"/>
<path d="M9.96295 9.03152C9.59765 9.03152 9.29876 9.33041 9.29876 9.69571V13.4152C9.29876 13.7805 9.59765 14.0794 9.96295 14.0794C10.3283 14.0794 10.6271 13.7805 10.6271 13.4152V9.69571C10.6271 9.33041 10.3283 9.03152 9.96295 9.03152Z" fill="#262626"/>
</svg>
