<svg width="18" height="18" viewBox="0 0 18 18" fill="none" xmlns="http://www.w3.org/2000/svg">
<path d="M17.28 9.62521L14.28 12.6252C14.134 12.7712 13.942 12.8452 13.75 12.8452C13.558 12.8452 13.366 12.7722 13.22 12.6252C12.927 12.3322 12.927 11.8572 13.22 11.5642L14.94 9.84421H5.751C5.337 9.84421 5.001 9.50821 5.001 9.09421C5.001 8.68021 5.337 8.34421 5.751 8.34421H14.94L13.22 6.62422C12.927 6.33121 12.927 5.85622 13.22 5.56322C13.513 5.27022 13.988 5.27022 14.281 5.56322L17.281 8.56322C17.574 8.85622 17.574 9.33121 17.281 9.62422L17.28 9.62521ZM6.5 17.0952C6.5 16.6812 6.164 16.3452 5.75 16.3452H2.75C2.061 16.3452 1.5 15.7842 1.5 15.0952V3.09521C1.5 2.40621 2.061 1.84521 2.75 1.84521H5.75C6.164 1.84521 6.5 1.50921 6.5 1.09521C6.5 0.681215 6.164 0.345215 5.75 0.345215H2.75C1.233 0.345215 0 1.57821 0 3.09521V15.0952C0 16.6122 1.233 17.8452 2.75 17.8452H5.75C6.164 17.8452 6.5 17.5092 6.5 17.0952Z" fill="#FB2727"/>
</svg>
