<svg width="20" height="21" viewBox="0 0 20 21" fill="none" xmlns="http://www.w3.org/2000/svg">
<path d="M9.16668 14.2977C9.16668 12.3323 7.90941 10.6593 6.15874 10.0283C6.7223 9.56951 7.08335 8.87109 7.08335 8.08937C7.08335 6.71078 5.96193 5.58936 4.58334 5.58936C3.20476 5.58936 2.08334 6.71078 2.08334 8.08937C2.08334 8.87109 2.44439 9.56951 3.00795 10.0283C1.25728 10.6593 0 12.3323 0 14.2977V14.7561H9.16668V14.2977ZM4.58334 6.42269C5.50233 6.42269 6.25001 7.17038 6.25001 8.08937C6.25001 9.00837 5.50233 9.75605 4.58334 9.75605C3.66435 9.75605 2.91667 9.00837 2.91667 8.08937C2.91667 7.17038 3.66435 6.42269 4.58334 6.42269ZM0.852052 13.9227C1.04065 12.0534 2.6235 10.5894 4.54163 10.5894H4.62505C6.54318 10.5894 8.12603 12.0534 8.31463 13.9227H0.852052Z" fill="#0078D4"/>
<path d="M16.9921 10.0283C17.5557 9.56951 17.9167 8.87109 17.9167 8.08937C17.9167 6.71078 16.7953 5.58936 15.4167 5.58936C14.0381 5.58936 12.9167 6.71078 12.9167 8.08937C12.9167 8.87109 13.2778 9.56951 13.8413 10.0283C12.0906 10.6593 10.8334 12.3323 10.8334 14.2977V14.7561H20.0001V14.2977C20.0001 12.3323 18.7428 10.6593 16.9921 10.0283ZM15.4167 6.42269C16.3357 6.42269 17.0834 7.17038 17.0834 8.08937C17.0834 9.00837 16.3357 9.75605 15.4167 9.75605C14.4977 9.75605 13.75 9.00837 13.75 8.08937C13.75 7.17038 14.4977 6.42269 15.4167 6.42269ZM11.6854 13.9227C11.874 12.0534 13.4569 10.5894 15.375 10.5894H15.4584C17.3766 10.5894 18.9594 12.0534 19.148 13.9227H11.6854Z" fill="#0078D4"/>
<path d="M7.67257 3.92255L6.42257 2.67255H15.0001V1.83921H6.42257L7.67257 0.589197L7.08338 0L4.82751 2.25588L7.08338 4.51175L7.67257 3.92255Z" fill="#0078D4"/>
<path d="M5 18.506H13.5775L12.3275 19.7561L12.9167 20.3452L15.1725 18.0894L12.9167 15.8335L12.3275 16.4227L13.5775 17.6727H5V18.506Z" fill="#0078D4"/>
</svg>
