<svg width="20" height="20" viewBox="0 0 20 20" fill="none" xmlns="http://www.w3.org/2000/svg">
<path d="M17.1583 14.3341C18.8974 12.3781 18.0958 9.1546 15.7 8.2009V2.2C15.7 1.5382 15.1618 1 14.5 1H4.3C3.6382 1 3.1 1.5382 3.1 2.2V2.8H2.2C1.5382 2.8 1 3.3382 1 4V17.8C1 18.4618 1.5382 19 2.2 19H12.4C13.0618 19 13.6 18.4618 13.6 17.8V17.2H14.5C15.0988 17.2009 15.6292 16.738 15.688 16.141V15.4036C16.0686 15.2452 16.4216 15.0275 16.7341 14.7586L18.4879 16.5121C18.5156 16.5408 18.5487 16.5636 18.5853 16.5793C18.6219 16.5951 18.6612 16.6033 18.7011 16.6037C18.7409 16.604 18.7804 16.5964 18.8173 16.5813C18.8542 16.5663 18.8877 16.544 18.9158 16.5158C18.944 16.4876 18.9663 16.4542 18.9813 16.4173C18.9964 16.3804 19.004 16.3409 19.0037 16.3011C19.0033 16.2612 18.9951 16.2219 18.9793 16.1853C18.9636 16.1487 18.9408 16.1156 18.9121 16.0879L17.1583 14.3341ZM13 17.8C13 18.1309 12.7309 18.4 12.4 18.4H2.2C1.8691 18.4 1.6 18.1309 1.6 17.8V4C1.6 3.6691 1.8691 3.4 2.2 3.4H3.1V16C3.1 16.6618 3.6382 17.2 4.3 17.2H13V17.8ZM15.088 16.1158C15.0609 16.252 14.9876 16.3746 14.8804 16.4628C14.7732 16.5511 14.6388 16.5995 14.5 16.6H4.3C3.9691 16.6 3.7 16.3309 3.7 16V2.2C3.7 1.8691 3.9691 1.6 4.3 1.6H14.5C14.8309 1.6 15.1 1.8691 15.1 2.2V8.0089C14.6751 7.90597 14.2359 7.87605 13.801 7.9204C14.4145 5.1754 12.2128 2.467 9.4 2.5C6.9187 2.5 4.9 4.5187 4.9 7C4.8673 9.8122 7.5754 12.0148 10.3204 11.401C10.0072 14.008 12.5443 16.2424 15.088 15.5941V16.1158ZM9.4 7.3H13.288C13.2675 7.55281 13.2223 7.80301 13.153 8.047C12.5079 8.22831 11.9201 8.57242 11.4463 9.04628C10.9724 9.52014 10.6283 10.1079 10.447 10.753C8.017 11.4748 5.4628 9.535 5.5 7C5.5 4.951 7.09 3.2692 9.1 3.115V7C9.1 7.07956 9.13161 7.15587 9.18787 7.21213C9.24413 7.26839 9.32044 7.3 9.4 7.3ZM9.7 6.7V3.115C11.611 3.262 13.138 4.789 13.285 6.7H9.7ZM14.2 15.1C12.3805 15.1 10.9 13.6195 10.9 11.8C11.0812 7.4221 17.3194 7.4233 17.5 11.8C17.5 13.6195 16.0195 15.1 14.2 15.1Z" fill="black" stroke="black" stroke-width="0.5"/>
</svg>
