<svg width="15" height="17" viewBox="0 0 15 17" fill="none" xmlns="http://www.w3.org/2000/svg">
<path d="M14.2536 4.30729L10.212 0.395194C9.9662 0.156085 9.63079 0.0199258 9.28541 0.0199258L1.67376 0C0.750537 0 0 0.743895 0 1.66048V15.3362C0 16.2362 0.773784 17 1.69037 17H12.9484C13.8484 17 14.579 16.2528 14.579 15.3329V5.101C14.579 4.79215 14.4628 4.50986 14.2536 4.30729ZM10.1954 2.22836L12.2842 4.24751H10.5573C10.3647 4.24751 10.1954 4.09807 10.1954 3.9287V2.22836ZM12.9484 15.6716H1.69037C1.5044 15.6716 1.32838 15.5089 1.32838 15.3329V1.66048C1.32838 1.48447 1.49111 1.32838 1.67376 1.32838L8.86697 1.34831V3.9287C8.86697 4.83532 9.62414 5.57589 10.5573 5.57589H13.2506V15.3329C13.2506 15.4989 13.1377 15.6716 12.9484 15.6716Z" fill="#262626"/>
<path d="M4.64927 5.0777C4.28397 5.0777 3.98508 5.37658 3.98508 5.74189V12.9152C3.98508 13.2805 4.28397 13.5794 4.64927 13.5794C5.01458 13.5794 5.31347 13.2805 5.31347 12.9152V5.74189C5.31347 5.37658 5.01458 5.0777 4.64927 5.0777Z" fill="#262626"/>
<path d="M7.30618 6.80463C6.94087 6.80463 6.64199 7.10351 6.64199 7.46882V12.9152C6.64199 13.2805 6.94087 13.5794 7.30618 13.5794C7.67148 13.5794 7.97037 13.2805 7.97037 12.9152V7.46882C7.97037 7.10351 7.67148 6.80463 7.30618 6.80463Z" fill="#262626"/>
<path d="M9.96281 8.53149C9.5975 8.53149 9.29862 8.83038 9.29862 9.19569V12.9152C9.29862 13.2805 9.5975 13.5794 9.96281 13.5794C10.3281 13.5794 10.627 13.2805 10.627 12.9152V9.19569C10.627 8.83038 10.3281 8.53149 9.96281 8.53149Z" fill="#262626"/>
</svg>
