<svg width="16" height="19" viewBox="0 0 16 19" fill="none" xmlns="http://www.w3.org/2000/svg">
<path d="M8 10.675C7.01667 10.675 6.1875 10.3628 5.5125 9.73844C4.8375 9.11406 4.5 8.34708 4.5 7.4375C4.5 6.52792 4.8375 5.76094 5.5125 5.13656C6.1875 4.51219 7.01667 4.2 8 4.2C8.98333 4.2 9.8125 4.51219 10.4875 5.13656C11.1625 5.76094 11.5 6.52792 11.5 7.4375C11.5 8.34708 11.1625 9.11406 10.4875 9.73844C9.8125 10.3628 8.98333 10.675 8 10.675ZM8 8.825C8.43333 8.825 8.79167 8.69396 9.075 8.43188C9.35833 8.16979 9.5 7.83833 9.5 7.4375C9.5 7.03667 9.35833 6.70521 9.075 6.44313C8.79167 6.18104 8.43333 6.05 8 6.05C7.56667 6.05 7.20833 6.18104 6.925 6.44313C6.64167 6.70521 6.5 7.03667 6.5 7.4375C6.5 7.83833 6.64167 8.16979 6.925 8.43188C7.20833 8.69396 7.56667 8.825 8 8.825ZM8 19C5.68333 18.4604 3.77083 17.2309 2.2625 15.3116C0.754167 13.3922 0 11.2608 0 8.9175V3.275L8 0.5L16 3.275V8.9175C16 11.2608 15.2458 13.3922 13.7375 15.3116C12.2292 17.2309 10.3167 18.4604 8 19ZM8 2.46563L2 4.54688V8.9175C2 9.75 2.125 10.5594 2.375 11.3456C2.625 12.1319 2.96667 12.8719 3.4 13.5656C4.1 13.2419 4.83333 12.9875 5.6 12.8025C6.36667 12.6175 7.16667 12.525 8 12.525C8.83333 12.525 9.63333 12.6175 10.4 12.8025C11.1667 12.9875 11.9 13.2419 12.6 13.5656C13.0333 12.8719 13.375 12.1319 13.625 11.3456C13.875 10.5594 14 9.75 14 8.9175V4.54688L8 2.46563ZM8 14.375C7.4 14.375 6.81667 14.4367 6.25 14.56C5.68333 14.6833 5.14167 14.8529 4.625 15.0688C5.10833 15.5312 5.63333 15.9321 6.2 16.2712C6.76667 16.6104 7.36667 16.8725 8 17.0575C8.63333 16.8725 9.23333 16.6104 9.8 16.2712C10.3667 15.9321 10.8917 15.5312 11.375 15.0688C10.8583 14.8529 10.3167 14.6833 9.75 14.56C9.18333 14.4367 8.6 14.375 8 14.375Z" fill="#262626"/>
</svg>
