<svg width="22" height="22" viewBox="0 0 22 22" fill="none" xmlns="http://www.w3.org/2000/svg">
<path d="M10.1667 15.2976C10.1667 13.3321 8.90941 11.6592 7.15874 11.0281C7.7223 10.5694 8.08335 9.87096 8.08335 9.08925C8.08335 7.71066 6.96193 6.58923 5.58334 6.58923C4.20476 6.58923 3.08334 7.71066 3.08334 9.08925C3.08334 9.87096 3.44439 10.5694 4.00795 11.0281C2.25728 11.6592 1 13.3321 1 15.2976V15.756H10.1667V15.2976ZM5.58334 7.42257C6.50233 7.42257 7.25001 8.17026 7.25001 9.08925C7.25001 10.0082 6.50233 10.7559 5.58334 10.7559C4.66435 10.7559 3.91667 10.0082 3.91667 9.08925C3.91667 8.17026 4.66435 7.42257 5.58334 7.42257ZM1.85205 14.9226C2.04065 13.0533 3.6235 11.5893 5.54163 11.5893H5.62505C7.54318 11.5893 9.12603 13.0533 9.31463 14.9226H1.85205Z" fill="#262626" stroke="#262626" stroke-width="0.35"/>
<path d="M17.9921 11.0281C18.5556 10.5694 18.9167 9.87096 18.9167 9.08925C18.9167 7.71066 17.7953 6.58923 16.4167 6.58923C15.0381 6.58923 13.9167 7.71066 13.9167 9.08925C13.9167 9.87096 14.2777 10.5694 14.8413 11.0281C13.0906 11.6592 11.8333 13.3321 11.8333 15.2976V15.756H21V15.2976C21 13.3321 19.7428 11.6592 17.9921 11.0281ZM16.4167 7.42257C17.3357 7.42257 18.0834 8.17026 18.0834 9.08925C18.0834 10.0082 17.3357 10.7559 16.4167 10.7559C15.4977 10.7559 14.75 10.0082 14.75 9.08925C14.75 8.17026 15.4977 7.42257 16.4167 7.42257ZM12.6854 14.9226C12.874 13.0533 14.4568 11.5893 16.375 11.5893H16.4584C18.3765 11.5893 19.9594 13.0533 20.148 14.9226H12.6854Z" fill="#262626" stroke="#262626" stroke-width="0.35"/>
<path d="M8.67254 4.92255L7.42254 3.67255H16V2.83921H7.42254L8.67254 1.5892L8.08335 1L5.82748 3.25588L8.08335 5.51175L8.67254 4.92255Z" fill="#262626" stroke="#262626" stroke-width="0.35"/>
<path d="M6 19.506H14.5775L13.3275 20.7561L13.9167 21.3452L16.1725 19.0894L13.9167 16.8335L13.3275 17.4227L14.5775 18.6727H6V19.506Z" fill="#262626" stroke="#262626" stroke-width="0.35"/>
</svg>
