<svg width="22" height="14" viewBox="0 0 22 14" fill="none" xmlns="http://www.w3.org/2000/svg">
<path d="M11 0C6.064 0 2.308 3.058 0 7C2.308 10.942 6.064 14 11 14C15.936 14 19.693 10.942 22 7C19.693 3.058 15.935 0 11 0ZM11 12C6.69 12 3.991 9.287 2.376 7C3.991 4.713 6.69 2 11 2C15.311 2 18.01 4.713 19.624 7C18.01 9.287 15.311 12 11 12Z" fill="#0078D4"/>
<path d="M11 10C12.6569 10 14 8.65685 14 7C14 5.34315 12.6569 4 11 4C9.34315 4 8 5.34315 8 7C8 8.65685 9.34315 10 11 10Z" fill="#0078D4"/>
</svg>
