<svg width="68" height="29" viewBox="0 0 68 29" fill="none" xmlns="http://www.w3.org/2000/svg">
<mask id="mask0_2734_106003" style="mask-type:luminance" maskUnits="userSpaceOnUse" x="2" y="0" width="66" height="29">
<path d="M68.0002 0.674316H2.17676V28.3487H68.0002V0.674316Z" fill="white"/>
</mask>
<g mask="url(#mask0_2734_106003)">
<path d="M2.81396 27.73C3.49425 27.4872 4.85322 26.9067 6.21218 26.5198C7.57195 26.139 8.25143 26.1453 9.61039 25.8147C10.9694 25.4842 11.6488 25.3032 13.0086 24.8481C14.3676 24.3929 15.047 24.0866 16.4068 23.5383C17.7658 22.9892 18.4453 22.3092 19.8042 22.0907C21.164 21.8658 21.8435 23.0761 23.2024 22.4212C24.5622 21.7663 25.2417 19.0089 26.6007 18.8154C27.9596 18.622 28.6399 21.2924 29.9989 21.4608C31.3578 21.6293 32.0373 21.1796 33.3971 19.645C34.756 18.1104 35.4355 13.9437 36.7945 13.7691C38.1543 13.5944 38.8337 18.3352 40.1927 18.7778C41.5525 19.2212 42.232 17.7368 43.5909 15.9648C44.9499 14.1929 45.6302 11.9407 46.9891 9.91338C48.3481 7.88605 49.0276 6.98754 50.3873 5.83992C51.7463 4.69231 52.4258 2.82714 53.7856 4.18078C55.1445 5.53442 55.824 12.9888 57.183 12.6026C58.5427 12.2157 59.2222 3.65044 60.5812 2.25294C61.9401 0.855427 62.6204 5.6339 63.9794 5.60883C65.3384 5.58455 66.6981 2.82087 67.3776 2.12211L66.9286 28.0543H2.81396V27.73Z" fill="white" fill-opacity="0.18"/>
<path d="M2.85949 27.8482L2.77002 27.6116C2.95541 27.5427 3.19963 27.4495 3.48174 27.3429C4.19991 27.0625 5.18649 26.6818 6.17388 26.4013C6.92429 26.189 7.46271 26.0958 8.03338 26.0018C8.49524 25.9274 8.96999 25.8459 9.57854 25.6963C10.8932 25.372 11.5855 25.1973 12.9639 24.7359C14.0536 24.374 14.7081 24.099 15.6181 23.7254C15.843 23.6314 16.0864 23.5319 16.3556 23.4254C16.8554 23.2193 17.26 23.0016 17.6574 22.7893C18.3046 22.4399 18.914 22.1093 19.7861 21.966C20.4269 21.8594 20.9145 22.0529 21.382 22.2339C21.9527 22.4587 22.4468 22.6459 23.152 22.3091C23.7541 22.0216 24.2289 21.2672 24.6972 20.5434C25.2679 19.6511 25.8063 18.8028 26.5881 18.697C27.3772 18.585 27.9415 19.3206 28.4863 20.0319C28.9474 20.6374 29.4286 21.2672 30.025 21.3354C31.2687 21.4858 31.916 21.1364 33.3072 19.5579C33.8779 18.9093 34.3333 17.7672 34.7758 16.6634C35.3722 15.1664 35.9365 13.7439 36.7892 13.6373C37.5969 13.5316 38.1353 14.8108 38.6995 16.1707C39.1678 17.2995 39.6547 18.4597 40.2447 18.6532C41.2579 18.9837 41.8729 18.1291 42.803 16.8318C43.0206 16.5263 43.2455 16.2138 43.5018 15.8832C44.2265 14.9416 44.7455 13.8747 45.2969 12.7459C45.7716 11.7784 46.2584 10.7804 46.8936 9.83882C48.2203 7.84831 48.8998 6.92552 50.3039 5.7403C50.6698 5.43401 50.9777 5.07915 51.2784 4.73604C51.8112 4.12424 52.2722 3.60017 52.8493 3.5751C53.1895 3.56257 53.5224 3.73099 53.8819 4.08664C54.5227 4.72977 55.0103 6.62549 55.4778 8.46638C55.9397 10.2752 56.4144 12.1403 56.9593 12.4458C57.023 12.4834 57.0874 12.4897 57.1519 12.4709C57.7863 12.2899 58.344 9.71349 58.8317 7.43705C59.3379 5.07915 59.8191 2.8458 60.4921 2.15331C60.7097 1.93476 60.9346 1.84075 61.1587 1.87209C61.7036 1.95356 62.1138 2.78313 62.5499 3.66284C62.9666 4.51122 63.4414 5.47788 63.9669 5.47788H63.9733C64.8841 5.45908 65.8457 4.04982 66.551 3.02049C66.8396 2.60218 67.083 2.24027 67.2813 2.03424L67.4675 2.20893C67.2813 2.39615 67.0443 2.7518 66.7622 3.16384C66.0311 4.23626 65.0252 5.71523 63.9798 5.73404C63.9733 5.73404 63.9733 5.73404 63.9669 5.73404C63.281 5.73404 62.7869 4.74152 62.3129 3.77486C61.9349 2.99542 61.5367 2.18386 61.12 2.12198C60.9789 2.10318 60.8314 2.17211 60.6718 2.33427C60.0496 2.97662 59.5555 5.27185 59.0751 7.49267C58.4085 10.5995 57.9467 12.5085 57.2156 12.7145C57.081 12.7521 56.9528 12.7333 56.8247 12.6644C56.1831 12.3025 55.7349 10.5556 55.2215 8.52827C54.7604 6.72576 54.2857 4.85433 53.6957 4.26132C53.3942 3.96208 53.1186 3.81873 52.8558 3.825C52.3939 3.83753 51.9651 4.33026 51.471 4.89193C51.176 5.2225 50.8488 5.60243 50.4708 5.92126C49.0924 7.08141 48.4194 7.99794 47.0983 9.96964C46.4704 10.8987 45.9892 11.8912 45.5209 12.8516C44.9632 13.993 44.4376 15.0662 43.7001 16.0273C43.4502 16.3579 43.2262 16.6697 43.0077 16.9689C42.1937 18.104 41.5714 18.9649 40.6743 18.9712C40.5139 18.9712 40.3406 18.9461 40.1617 18.8842C39.4564 18.6594 38.9752 17.493 38.4561 16.2576C37.9491 15.0536 37.43 13.8003 36.8142 13.8809C36.1154 13.9687 35.5512 15.3842 35.0063 16.7504C34.5573 17.8737 34.0963 19.0339 33.4934 19.7201C32.3134 21.0549 31.6016 21.6103 30.4796 21.6103C30.3201 21.6103 30.1597 21.5978 29.9799 21.579C29.2811 21.492 28.7684 20.8238 28.2679 20.1752C27.7424 19.489 27.2483 18.8466 26.6139 18.9399C25.9474 19.0339 25.4404 19.8321 24.9019 20.6742C24.4215 21.4294 23.921 22.2151 23.2544 22.5331C22.4468 22.9201 21.8503 22.6898 21.2796 22.465C20.8436 22.2965 20.3882 22.1156 19.824 22.2088C18.997 22.3467 18.4328 22.6522 17.7791 23.0016C17.3817 23.2193 16.9714 23.4379 16.4515 23.6502C16.1823 23.7559 15.9454 23.8562 15.7213 23.9494C14.804 24.3239 14.1439 24.598 13.0477 24.9662C11.6557 25.4347 10.9568 25.6094 9.63657 25.9337C9.01432 26.0833 8.54037 26.164 8.07207 26.2454C7.50785 26.3387 6.97587 26.4327 6.23836 26.6379C5.26387 26.9129 4.28938 27.2936 3.57121 27.5677C3.29555 27.6798 3.05213 27.78 2.85949 27.8482Z" fill="white"/>
<mask id="mask1_2734_106003" style="mask-type:luminance" maskUnits="userSpaceOnUse" x="2" y="27" width="2" height="2">
<path d="M2.28809 27.1455H3.41491V28.2289H2.28809V27.1455Z" fill="white"/>
</mask>
<g mask="url(#mask1_2734_106003)">
<path d="M3.32734 27.7297C3.32734 27.7963 3.31445 27.8597 3.28785 27.9209C3.26205 27.982 3.22498 28.036 3.17662 28.083C3.12906 28.1292 3.07344 28.1653 3.01057 28.1911C2.9477 28.2162 2.88242 28.2287 2.8139 28.2287C2.7462 28.2287 2.68091 28.2162 2.61804 28.1911C2.55517 28.1653 2.49955 28.1292 2.45119 28.083C2.40363 28.036 2.36656 27.982 2.33996 27.9209C2.31417 27.8597 2.30127 27.7963 2.30127 27.7297C2.30127 27.6639 2.31417 27.5997 2.33996 27.5386C2.36656 27.4775 2.40363 27.4234 2.45119 27.3772C2.49955 27.3302 2.55517 27.2942 2.61804 27.2691C2.68091 27.2432 2.7462 27.2307 2.8139 27.2307C2.88242 27.2307 2.9477 27.2432 3.01057 27.2691C3.07344 27.2942 3.12906 27.3302 3.17662 27.3772C3.22498 27.4234 3.26205 27.4775 3.28785 27.5386C3.31445 27.5997 3.32734 27.6639 3.32734 27.7297Z" fill="white"/>
</g>
<path d="M6.72627 26.5195C6.72627 26.5861 6.71257 26.6495 6.68677 26.7106C6.66098 26.7717 6.6239 26.8258 6.57554 26.8728C6.52718 26.919 6.47237 26.9551 6.4095 26.9809C6.34663 27.006 6.28134 27.0185 6.21283 27.0185C6.14512 27.0185 6.07983 27.006 6.01696 26.9809C5.95409 26.9551 5.89848 26.919 5.85012 26.8728C5.80256 26.8258 5.76548 26.7717 5.73888 26.7106C5.71309 26.6495 5.7002 26.5861 5.7002 26.5195C5.7002 26.4537 5.71309 26.3895 5.73888 26.3284C5.76548 26.2673 5.80256 26.2132 5.85012 26.167C5.89848 26.12 5.95409 26.084 6.01696 26.0589C6.07983 26.033 6.14512 26.0205 6.21283 26.0205C6.28134 26.0205 6.34663 26.033 6.4095 26.0589C6.47237 26.084 6.52718 26.12 6.57554 26.167C6.6239 26.2132 6.66098 26.2673 6.68677 26.3284C6.71257 26.3895 6.72627 26.4537 6.72627 26.5195Z" fill="white"/>
<path d="M10.1234 25.8147C10.1234 25.8813 10.1105 25.9447 10.0847 26.0058C10.0589 26.0669 10.0219 26.121 9.97349 26.168C9.92513 26.215 9.86951 26.251 9.80745 26.2761C9.74458 26.3011 9.67848 26.3137 9.61078 26.3137C9.54307 26.3137 9.47698 26.3011 9.41411 26.2761C9.35204 26.251 9.29643 26.215 9.24807 26.168C9.1997 26.121 9.16263 26.0669 9.13683 26.0058C9.11104 25.9447 9.09814 25.8813 9.09814 25.8147C9.09814 25.7489 9.11104 25.6854 9.13683 25.6243C9.16263 25.5624 9.1997 25.5092 9.24807 25.4622C9.29643 25.4152 9.35204 25.3791 9.41411 25.3541C9.47698 25.3282 9.54307 25.3157 9.61078 25.3157C9.67848 25.3157 9.74458 25.3282 9.80745 25.3541C9.86951 25.3791 9.92513 25.4152 9.97349 25.4622C10.0219 25.5092 10.0589 25.5624 10.0847 25.6243C10.1105 25.6854 10.1234 25.7489 10.1234 25.8147Z" fill="white"/>
<path d="M13.5217 24.8542C13.5217 24.92 13.5088 24.9843 13.483 25.0454C13.4564 25.1065 13.4193 25.1605 13.3718 25.2067C13.3234 25.2537 13.2678 25.2898 13.2049 25.3156C13.142 25.3407 13.0768 25.3532 13.009 25.3532C12.9405 25.3532 12.8752 25.3407 12.8124 25.3156C12.7495 25.2898 12.6947 25.2537 12.6463 25.2067C12.598 25.1605 12.5609 25.1065 12.5351 25.0454C12.5093 24.9843 12.4956 24.92 12.4956 24.8542C12.4956 24.7876 12.5093 24.7242 12.5351 24.6631C12.5609 24.602 12.598 24.5479 12.6463 24.5009C12.6947 24.4547 12.7495 24.4187 12.8124 24.3928C12.8752 24.3678 12.9405 24.3552 13.009 24.3552C13.0768 24.3552 13.142 24.3678 13.2049 24.3928C13.2678 24.4187 13.3234 24.4547 13.3718 24.5009C13.4193 24.5479 13.4564 24.602 13.483 24.6631C13.5088 24.7242 13.5217 24.7876 13.5217 24.8542Z" fill="white"/>
<path d="M16.9201 23.5381C16.9201 23.6039 16.9072 23.6673 16.8814 23.7284C16.8548 23.7895 16.8178 23.8436 16.7702 23.8906C16.7218 23.9376 16.6662 23.9736 16.6033 23.9987C16.5405 24.0245 16.4752 24.0371 16.4075 24.0371C16.339 24.0371 16.2737 24.0245 16.2108 23.9987C16.1479 23.9736 16.0923 23.9376 16.0448 23.8906C15.9964 23.8436 15.9593 23.7895 15.9335 23.7284C15.9069 23.6673 15.894 23.6039 15.894 23.5381C15.894 23.4715 15.9069 23.408 15.9335 23.3469C15.9593 23.2858 15.9964 23.2318 16.0448 23.1848C16.0923 23.1378 16.1479 23.1017 16.2108 23.0767C16.2737 23.0516 16.339 23.0391 16.4075 23.0391C16.4752 23.0391 16.5405 23.0516 16.6033 23.0767C16.6662 23.1017 16.7218 23.1378 16.7702 23.1848C16.8178 23.2318 16.8548 23.2858 16.8814 23.3469C16.9072 23.408 16.9201 23.4715 16.9201 23.5381Z" fill="white"/>
<path d="M20.3181 22.0906C20.3181 22.1571 20.3052 22.2206 20.2786 22.2817C20.2528 22.3428 20.2157 22.3968 20.1673 22.4438C20.1198 22.4901 20.0642 22.5261 20.0013 22.5519C19.9384 22.577 19.8731 22.5895 19.8046 22.5895C19.7369 22.5895 19.6716 22.577 19.6088 22.5519C19.5459 22.5261 19.4903 22.4901 19.4419 22.4438C19.3944 22.3968 19.3573 22.3428 19.3315 22.2817C19.3049 22.2206 19.292 22.1571 19.292 22.0906C19.292 22.0247 19.3049 21.9605 19.3315 21.8994C19.3573 21.8383 19.3944 21.7843 19.4419 21.738C19.4903 21.691 19.5459 21.655 19.6088 21.6292C19.6716 21.6041 19.7369 21.5916 19.8046 21.5916C19.8731 21.5916 19.9384 21.6041 20.0013 21.6292C20.0642 21.655 20.1198 21.691 20.1673 21.738C20.2157 21.7843 20.2528 21.8383 20.2786 21.8994C20.3052 21.9605 20.3181 22.0247 20.3181 22.0906Z" fill="white"/>
<path d="M23.716 22.4209C23.716 22.4875 23.7023 22.5509 23.6765 22.612C23.6507 22.6731 23.6136 22.7272 23.5653 22.7742C23.5177 22.8204 23.4621 22.8564 23.3992 22.8823C23.3364 22.9073 23.2711 22.9199 23.2026 22.9199C23.1349 22.9199 23.0696 22.9073 23.0067 22.8823C22.9438 22.8564 22.8882 22.8204 22.8399 22.7742C22.7923 22.7272 22.7552 22.6731 22.7286 22.612C22.7028 22.5509 22.6899 22.4875 22.6899 22.4209C22.6899 22.3551 22.7028 22.2908 22.7286 22.2297C22.7552 22.1686 22.7923 22.1146 22.8399 22.0684C22.8882 22.0214 22.9438 21.9853 23.0067 21.9603C23.0696 21.9344 23.1349 21.9219 23.2026 21.9219C23.2711 21.9219 23.3364 21.9344 23.3992 21.9603C23.4621 21.9853 23.5177 22.0214 23.5653 22.0684C23.6136 22.1146 23.6507 22.1686 23.6765 22.2297C23.7023 22.2908 23.716 22.3551 23.716 22.4209Z" fill="white"/>
<path d="M27.1136 18.8215C27.1136 18.8881 27.1007 18.9515 27.075 19.0126C27.0492 19.0737 27.0121 19.1278 26.9637 19.1748C26.9154 19.221 26.8606 19.2571 26.7977 19.2829C26.7348 19.308 26.6687 19.3205 26.601 19.3205C26.5333 19.3205 26.4672 19.308 26.4051 19.2829C26.3423 19.2571 26.2867 19.221 26.2383 19.1748C26.1899 19.1278 26.1529 19.0737 26.1271 19.0126C26.1013 18.9515 26.0884 18.8881 26.0884 18.8215C26.0884 18.7557 26.1013 18.6915 26.1271 18.6304C26.1529 18.5693 26.1899 18.5152 26.2383 18.469C26.2867 18.422 26.3423 18.386 26.4051 18.3609C26.4672 18.335 26.5333 18.3225 26.601 18.3225C26.6687 18.3225 26.7348 18.335 26.7977 18.3609C26.8606 18.386 26.9154 18.422 26.9637 18.469C27.0121 18.5152 27.0492 18.5693 27.075 18.6304C27.1007 18.6915 27.1136 18.7557 27.1136 18.8215Z" fill="white"/>
<path d="M30.5116 21.4607C30.5116 21.5265 30.4987 21.5907 30.4729 21.6518C30.4463 21.7129 30.4092 21.767 30.3617 21.8132C30.3133 21.8602 30.2577 21.8962 30.1948 21.9213C30.132 21.9471 30.0667 21.9597 29.999 21.9597C29.9304 21.9597 29.8652 21.9471 29.8023 21.9213C29.7394 21.8962 29.6846 21.8602 29.6362 21.8132C29.5879 21.767 29.5508 21.7129 29.525 21.6518C29.4992 21.5907 29.4863 21.5265 29.4863 21.4607C29.4863 21.3941 29.4992 21.3306 29.525 21.2695C29.5508 21.2084 29.5879 21.1544 29.6362 21.1074C29.6846 21.0612 29.7394 21.0251 29.8023 20.9993C29.8652 20.9742 29.9304 20.9617 29.999 20.9617C30.0667 20.9617 30.132 20.9742 30.1948 20.9993C30.2577 21.0251 30.3133 21.0612 30.3617 21.1074C30.4092 21.1544 30.4463 21.2084 30.4729 21.2695C30.4987 21.3306 30.5116 21.3941 30.5116 21.4607Z" fill="white"/>
<path d="M33.9104 19.6448C33.9104 19.7113 33.8975 19.7748 33.8717 19.8359C33.8451 19.897 33.808 19.951 33.7604 19.998C33.7121 20.045 33.6565 20.0811 33.5936 20.1061C33.5307 20.1312 33.4654 20.1437 33.3977 20.1437C33.3292 20.1437 33.2639 20.1312 33.201 20.1061C33.1382 20.0811 33.0826 20.045 33.035 19.998C32.9866 19.951 32.9496 19.897 32.9238 19.8359C32.8972 19.7748 32.8843 19.7113 32.8843 19.6448C32.8843 19.5789 32.8972 19.5155 32.9238 19.4544C32.9496 19.3933 32.9866 19.3392 33.035 19.2922C33.0826 19.2452 33.1382 19.2092 33.201 19.1841C33.2639 19.1583 33.3292 19.1458 33.3977 19.1458C33.4654 19.1458 33.5307 19.1583 33.5936 19.1841C33.6565 19.2092 33.7121 19.2452 33.7604 19.2922C33.808 19.3392 33.8451 19.3933 33.8717 19.4544C33.8975 19.5155 33.9104 19.5789 33.9104 19.6448Z" fill="white"/>
<path d="M37.3083 13.7688C37.3083 13.8346 37.2954 13.898 37.2688 13.9599C37.243 14.021 37.2059 14.0743 37.1576 14.1213C37.11 14.1683 37.0544 14.2043 36.9915 14.2294C36.9287 14.2552 36.8634 14.2678 36.7949 14.2678C36.7272 14.2678 36.6619 14.2552 36.599 14.2294C36.5361 14.2043 36.4805 14.1683 36.433 14.1213C36.3846 14.0743 36.3475 14.021 36.3217 13.9599C36.2951 13.898 36.2822 13.8346 36.2822 13.7688C36.2822 13.7022 36.2951 13.6387 36.3217 13.5776C36.3475 13.5165 36.3846 13.4625 36.433 13.4155C36.4805 13.3685 36.5361 13.3324 36.599 13.3074C36.6619 13.2823 36.7272 13.2698 36.7949 13.2698C36.8634 13.2698 36.9287 13.2823 36.9915 13.3074C37.0544 13.3324 37.11 13.3685 37.1576 13.4155C37.2059 13.4625 37.243 13.5165 37.2688 13.5776C37.2954 13.6387 37.3083 13.7022 37.3083 13.7688Z" fill="white"/>
<path d="M40.7067 18.7715C40.7067 18.838 40.693 18.9015 40.6672 18.9626C40.6414 19.0237 40.6044 19.0778 40.556 19.1248C40.5085 19.1718 40.4528 19.2078 40.39 19.2329C40.3271 19.2579 40.2618 19.2712 40.1933 19.2712C40.1256 19.2712 40.0603 19.2579 39.9974 19.2329C39.9346 19.2078 39.8789 19.1718 39.8306 19.1248C39.783 19.0778 39.746 19.0237 39.7194 18.9626C39.6936 18.9015 39.6807 18.838 39.6807 18.7715C39.6807 18.7057 39.6936 18.6422 39.7194 18.5811C39.746 18.52 39.783 18.4659 39.8306 18.4189C39.8789 18.3719 39.9346 18.3359 39.9974 18.3108C40.0603 18.2858 40.1256 18.2725 40.1933 18.2725C40.2618 18.2725 40.3271 18.2858 40.39 18.3108C40.4528 18.3359 40.5085 18.3719 40.556 18.4189C40.6044 18.4659 40.6414 18.52 40.6672 18.5811C40.693 18.6422 40.7067 18.7057 40.7067 18.7715Z" fill="white"/>
<path d="M44.1039 15.9582C44.1039 16.024 44.091 16.0883 44.0652 16.1494C44.0394 16.2105 44.0023 16.2645 43.954 16.3107C43.9056 16.3577 43.8508 16.3938 43.7879 16.4196C43.725 16.4447 43.659 16.4572 43.5912 16.4572C43.5235 16.4572 43.4583 16.4447 43.3954 16.4196C43.3325 16.3938 43.2769 16.3577 43.2285 16.3107C43.1802 16.2645 43.1431 16.2105 43.1173 16.1494C43.0915 16.0883 43.0786 16.024 43.0786 15.9582C43.0786 15.8916 43.0915 15.8282 43.1173 15.7671C43.1431 15.706 43.1802 15.6519 43.2285 15.6049C43.2769 15.5587 43.3325 15.5227 43.3954 15.4968C43.4583 15.4718 43.5235 15.4592 43.5912 15.4592C43.659 15.4592 43.725 15.4718 43.7879 15.4968C43.8508 15.5227 43.9056 15.5587 43.954 15.6049C44.0023 15.6519 44.0394 15.706 44.0652 15.7671C44.091 15.8282 44.1039 15.8916 44.1039 15.9582Z" fill="white"/>
<path d="M47.5018 9.90696C47.5018 9.97354 47.4889 10.037 47.4631 10.0981C47.4373 10.1592 47.4003 10.2132 47.3519 10.2603C47.3035 10.3073 47.2479 10.3433 47.1851 10.3684C47.1222 10.3934 47.0569 10.406 46.9892 10.406C46.9215 10.406 46.8554 10.3934 46.7925 10.3684C46.7297 10.3433 46.6748 10.3073 46.6265 10.2603C46.5781 10.2132 46.541 10.1592 46.5153 10.0981C46.4895 10.037 46.4766 9.97354 46.4766 9.90696C46.4766 9.84116 46.4895 9.7777 46.5153 9.71582C46.541 9.65472 46.5781 9.60145 46.6265 9.55445C46.6748 9.50745 46.7297 9.47141 46.7925 9.44634C46.8554 9.42049 46.9215 9.40796 46.9892 9.40796C47.0569 9.40796 47.1222 9.42049 47.1851 9.44634C47.2479 9.47141 47.3035 9.50745 47.3519 9.55445C47.4003 9.60145 47.4373 9.65472 47.4631 9.71582C47.4889 9.7777 47.5018 9.84116 47.5018 9.90696Z" fill="white"/>
<path d="M50.9001 5.83347C50.9001 5.90006 50.8872 5.96351 50.8614 6.02461C50.8348 6.08571 50.7977 6.13976 50.7502 6.18676C50.7018 6.23298 50.6462 6.26902 50.5833 6.29487C50.5205 6.31994 50.4552 6.33247 50.3875 6.33247C50.319 6.33247 50.2537 6.31994 50.1908 6.29487C50.1279 6.26902 50.0723 6.23298 50.0248 6.18676C49.9764 6.13976 49.9393 6.08571 49.9135 6.02461C49.8877 5.96351 49.874 5.90006 49.874 5.83347C49.874 5.76767 49.8877 5.70343 49.9135 5.64233C49.9393 5.58123 49.9764 5.52718 50.0248 5.48096C50.0723 5.43396 50.1279 5.39792 50.1908 5.37286C50.2537 5.34701 50.319 5.33447 50.3875 5.33447C50.4552 5.33447 50.5205 5.34701 50.5833 5.37286C50.6462 5.39792 50.7018 5.43396 50.7502 5.48096C50.7977 5.52718 50.8348 5.58123 50.8614 5.64233C50.8872 5.70343 50.9001 5.76767 50.9001 5.83347Z" fill="white"/>
<path d="M54.2985 4.17429C54.2985 4.24009 54.2856 4.30433 54.259 4.36543C54.2332 4.42653 54.1962 4.48058 54.1478 4.5268C54.1003 4.5738 54.0446 4.60984 53.9818 4.6349C53.9189 4.66076 53.8536 4.67329 53.7859 4.67329C53.7174 4.67329 53.6521 4.66076 53.5892 4.6349C53.5264 4.60984 53.4707 4.5738 53.4232 4.5268C53.3748 4.48058 53.3377 4.42653 53.312 4.36543C53.2854 4.30433 53.2725 4.24009 53.2725 4.17429C53.2725 4.10771 53.2854 4.04425 53.312 3.98315C53.3377 3.92205 53.3748 3.868 53.4232 3.821C53.4707 3.77478 53.5264 3.73874 53.5892 3.71289C53.6521 3.68783 53.7174 3.67529 53.7859 3.67529C53.8536 3.67529 53.9189 3.68783 53.9818 3.71289C54.0446 3.73874 54.1003 3.77478 54.1478 3.821C54.1962 3.868 54.2332 3.92205 54.259 3.98315C54.2856 4.04425 54.2985 4.10771 54.2985 4.17429Z" fill="white"/>
<path d="M57.697 12.5962C57.697 12.662 57.6841 12.7255 57.6575 12.7866C57.6317 12.8477 57.5946 12.9017 57.5462 12.9487C57.4987 12.9957 57.4431 13.0318 57.3802 13.0568C57.3173 13.0819 57.252 13.0952 57.1835 13.0952C57.1158 13.0952 57.0505 13.0819 56.9877 13.0568C56.9248 13.0318 56.8692 12.9957 56.8208 12.9487C56.7733 12.9017 56.7362 12.8477 56.7096 12.7866C56.6838 12.7255 56.6709 12.662 56.6709 12.5962C56.6709 12.5296 56.6838 12.4662 56.7096 12.4051C56.7362 12.344 56.7733 12.2899 56.8208 12.2429C56.8692 12.1959 56.9248 12.1599 56.9877 12.1348C57.0505 12.1098 57.1158 12.0964 57.1835 12.0964C57.252 12.0964 57.3173 12.1098 57.3802 12.1348C57.4431 12.1599 57.4987 12.1959 57.5462 12.2429C57.5946 12.2899 57.6317 12.344 57.6575 12.4051C57.6841 12.4662 57.697 12.5296 57.697 12.5962Z" fill="white"/>
<path d="M61.0949 2.24656C61.0941 2.31314 61.0812 2.37659 61.0554 2.4377C61.0296 2.4988 60.9926 2.55285 60.9442 2.59985C60.8958 2.64607 60.841 2.6821 60.7782 2.70795C60.7153 2.73302 60.65 2.74555 60.5815 2.74555C60.5138 2.74555 60.4485 2.73302 60.3856 2.70795C60.3227 2.6821 60.2671 2.64607 60.2188 2.59985C60.1712 2.55285 60.1341 2.4988 60.1075 2.4377C60.0817 2.37659 60.0688 2.31314 60.0688 2.24656C60.0688 2.18075 60.0817 2.11652 60.1075 2.05542C60.1341 1.99432 60.1712 1.94026 60.2188 1.89405C60.2671 1.84704 60.3227 1.81101 60.3856 1.78516C60.4485 1.76009 60.5138 1.74756 60.5815 1.74756C60.65 1.74756 60.7153 1.76009 60.7782 1.78516C60.841 1.81101 60.8958 1.84704 60.9442 1.89405C60.9926 1.94026 61.0296 1.99432 61.0554 2.05542C61.0812 2.11652 61.0941 2.18075 61.0949 2.24656Z" fill="white"/>
<path d="M64.4921 5.60862C64.4921 5.6752 64.4792 5.73865 64.4534 5.79976C64.4276 5.86086 64.3905 5.91491 64.3421 5.96191C64.2938 6.00891 64.2382 6.04495 64.1753 6.07001C64.1132 6.09508 64.0471 6.10762 63.9794 6.10762C63.9117 6.10762 63.8456 6.09508 63.7828 6.07001C63.7199 6.04495 63.6651 6.00891 63.6167 5.96191C63.5684 5.91491 63.5313 5.86086 63.5055 5.79976C63.4797 5.73865 63.4668 5.6752 63.4668 5.60862C63.4668 5.54282 63.4797 5.47936 63.5055 5.41826C63.5313 5.35716 63.5684 5.30311 63.6167 5.25611C63.6651 5.20911 63.7199 5.17307 63.7828 5.148C63.8456 5.12215 63.9117 5.10962 63.9794 5.10962C64.0471 5.10962 64.1132 5.12215 64.1753 5.148C64.2382 5.17307 64.2938 5.20911 64.3421 5.25611C64.3905 5.30311 64.4276 5.35716 64.4534 5.41826C64.4792 5.47936 64.4921 5.54282 64.4921 5.60862Z" fill="white"/>
<mask id="mask2_2734_106003" style="mask-type:luminance" maskUnits="userSpaceOnUse" x="66" y="1" width="2" height="2">
<path d="M66.7622 1.47632H67.9052V2.67955H66.7622V1.47632Z" fill="white"/>
</mask>
<g mask="url(#mask2_2734_106003)">
<path d="M67.8908 2.1218C67.8908 2.1876 67.8779 2.25184 67.8521 2.31294C67.8255 2.37404 67.7885 2.42809 67.7409 2.47431C67.6925 2.52131 67.6369 2.55735 67.5741 2.58241C67.5112 2.60827 67.4459 2.6208 67.3782 2.6208C67.3097 2.6208 67.2444 2.60827 67.1815 2.58241C67.1186 2.55735 67.063 2.52131 67.0155 2.47431C66.9671 2.42809 66.93 2.37404 66.9042 2.31294C66.8784 2.25184 66.8647 2.1876 66.8647 2.1218C66.8647 2.05522 66.8784 1.99176 66.9042 1.93066C66.93 1.86956 66.9671 1.81551 67.0155 1.76851C67.063 1.72229 67.1186 1.68625 67.1815 1.6604C67.2444 1.63534 67.3097 1.6228 67.3782 1.6228C67.4459 1.6228 67.5112 1.63534 67.5741 1.6604C67.6369 1.68625 67.6925 1.72229 67.7409 1.76851C67.7885 1.81551 67.8255 1.86956 67.8521 1.93066C67.8779 1.99176 67.8908 2.05522 67.8908 2.1218Z" fill="white"/>
</g>
</g>
<path d="M5.90335 13.7595L9.42085 21.3863L12.9351 13.7595H18.8417L11.1071 27.7816H7.73142L0 13.7595H5.90335Z" fill="white"/>
<path d="M17.8545 13.7595V27.7816H22.8325V13.7595H17.8545Z" fill="white"/>
<path d="M38.1884 13.7595L31.0438 24.0904H37.6274V27.7816H22.6934L29.8348 17.4507H23.8734V13.7595H38.1884Z" fill="white"/>
<path d="M39.2687 26.1145C37.6671 24.7295 36.8667 22.9528 36.8667 20.7845C36.8667 18.6162 37.7001 16.8356 39.3686 15.442C41.0363 14.0468 43.0989 13.3489 45.5557 13.3489C47.9738 13.3489 50.0122 14.0508 51.6718 15.4545C53.3306 16.8583 54.1608 18.635 54.1608 20.7845C54.1608 22.934 53.3492 24.7068 51.7266 26.1019C50.1057 27.4955 48.0487 28.1919 45.5557 28.1919C42.9675 28.1919 40.8719 27.4994 39.2687 26.1145ZM43.1215 18.4062C42.4767 19.0266 42.1542 19.8194 42.1542 20.7845C42.1542 21.7496 42.4621 22.5384 43.0796 23.1502C43.6986 23.7605 44.5143 24.0652 45.5267 24.0652C46.502 24.0652 47.304 23.7566 47.9318 23.1377C48.5589 22.5173 48.8733 21.7331 48.8733 20.7845C48.8733 19.8194 48.5493 19.0266 47.9028 18.4062C47.2556 17.7858 46.4633 17.4756 45.5267 17.4756C44.5699 17.4756 43.7679 17.7858 43.1215 18.4062Z" fill="white"/>
<path d="M54.3838 27.7814V13.7594H59.3618V15.7835H59.4199C59.4561 15.7107 59.5166 15.6198 59.6004 15.5109C59.6858 15.4005 59.8688 15.2086 60.1485 14.9344C60.4298 14.661 60.7296 14.4158 61.048 14.198C61.368 13.9787 61.7807 13.7829 62.2861 13.609C62.7931 13.4358 63.3089 13.3489 63.8337 13.3489C64.3769 13.3489 64.9113 13.4225 65.436 13.5682C65.9624 13.7147 66.3469 13.8612 66.5903 14.0069L66.9836 14.2231L64.9041 18.3248C64.285 17.8156 63.4218 17.5602 62.3151 17.5602C61.7154 17.5602 61.1996 17.6879 60.7675 17.9425C60.3371 18.1979 60.0332 18.5081 59.8551 18.8731C59.6762 19.2366 59.5496 19.546 59.4747 19.8006C59.3989 20.056 59.3618 20.2565 59.3618 20.4022V27.7814H54.3838Z" fill="white"/>
<path d="M20.071 5.88816C21.3181 5.88816 22.3424 6.91604 22.3424 8.20089C22.3424 9.47062 21.3329 10.5136 20.071 10.5136C18.8091 10.5136 17.7996 9.48573 17.7996 8.20089C17.8144 6.93116 18.824 5.88816 20.071 5.88816ZM20.071 3.04639C17.28 3.04639 15.0234 5.34399 15.0234 8.18577C15.0234 11.0275 17.28 13.3252 20.071 13.3252C22.862 13.3252 25.1186 11.0275 25.1186 8.18577C25.1334 5.35911 22.862 3.04639 20.071 3.04639Z" fill="#00A3E1"/>
</svg>
