<svg width="68" height="28" viewBox="0 0 68 28" fill="none" xmlns="http://www.w3.org/2000/svg">
<mask id="mask0_2734_105956" style="mask-type:luminance" maskUnits="userSpaceOnUse" x="2" y="0" width="66" height="28">
<path d="M68.0002 0H2.17676V27.6744H68.0002V0Z" fill="white"/>
</mask>
<g mask="url(#mask0_2734_105956)">
<path d="M2.81396 27.0557C3.49425 26.8129 4.85322 26.2324 6.21218 25.8454C7.57195 25.4647 8.25143 25.471 9.61039 25.1404C10.9694 24.8098 11.6488 24.6289 13.0086 24.1738C14.3676 23.7186 15.047 23.4123 16.4068 22.864C17.7658 22.3148 18.4453 21.6349 19.8042 21.4163C21.164 21.1915 21.8435 22.4018 23.2024 21.7469C24.5622 21.092 25.2417 18.3346 26.6007 18.1411C27.9596 17.9476 28.6399 20.6181 29.9989 20.7865C31.3578 20.9549 32.0373 20.5053 33.3971 18.9707C34.756 17.4361 35.4355 13.2694 36.7945 13.0947C38.1543 12.9201 38.8337 17.6609 40.1927 18.1035C41.5525 18.5469 42.232 17.0624 43.5909 15.2905C44.9499 13.5185 45.6302 11.2664 46.9891 9.23906C48.3481 7.21174 49.0276 6.31323 50.3873 5.16561C51.7463 4.01799 52.4258 2.15282 53.7856 3.50646C55.1445 4.8601 55.824 12.3145 57.183 11.9283C58.5427 11.5413 59.2222 2.97613 60.5812 1.57862C61.9401 0.181111 62.6204 4.95959 63.9794 4.93452C65.3384 4.91023 66.6981 2.14655 67.3776 1.4478L66.9286 27.38H2.81396V27.0557Z" fill="#45AAF7" fill-opacity="0.18"/>
<path d="M2.85949 27.1739L2.77002 26.9373C2.95541 26.8684 3.19963 26.7751 3.48174 26.6686C4.19991 26.3882 5.18649 26.0075 6.17388 25.727C6.92429 25.5147 7.46271 25.4215 8.03338 25.3275C8.49524 25.2531 8.96999 25.1716 9.57854 25.022C10.8932 24.6977 11.5855 24.523 12.9639 24.0616C14.0536 23.6997 14.7081 23.4247 15.6181 23.0511C15.843 22.9571 16.0864 22.8576 16.3556 22.751C16.8554 22.545 17.26 22.3272 17.6574 22.115C18.3046 21.7656 18.914 21.435 19.7861 21.2916C20.4269 21.1851 20.9145 21.3786 21.382 21.5596C21.9527 21.7844 22.4468 21.9716 23.152 21.6348C23.7541 21.3473 24.2289 20.5929 24.6972 19.8691C25.2679 18.9768 25.8063 18.1285 26.5881 18.0227C27.3772 17.9107 27.9415 18.6463 28.4863 19.3575C28.9474 19.9631 29.4286 20.5929 30.025 20.661C31.2687 20.8115 31.916 20.4621 33.3072 18.8836C33.8779 18.235 34.3333 17.0929 34.7758 15.9891C35.3722 14.4921 35.9365 13.0695 36.7892 12.963C37.5969 12.8572 38.1353 14.1365 38.6995 15.4964C39.1678 16.6252 39.6547 17.7853 40.2447 17.9788C41.2579 18.3094 41.8729 17.4548 42.803 16.1575C43.0206 15.852 43.2455 15.5395 43.5018 15.2089C44.2265 14.2673 44.7455 13.2004 45.2969 12.0715C45.7716 11.1041 46.2584 10.1061 46.8936 9.16451C48.2203 7.174 48.8998 6.2512 50.3039 5.06599C50.6698 4.75969 50.9777 4.40483 51.2784 4.06172C51.8112 3.44992 52.2722 2.92586 52.8493 2.90079C53.1895 2.88825 53.5224 3.05668 53.8819 3.41232C54.5227 4.05546 55.0103 5.95118 55.4778 7.79207C55.9397 9.60084 56.4144 11.466 56.9593 11.7715C57.023 11.8091 57.0874 11.8154 57.1519 11.7966C57.7863 11.6156 58.344 9.03917 58.8317 6.76274C59.3379 4.40483 59.8191 2.17148 60.4921 1.479C60.7097 1.26044 60.9346 1.16644 61.1587 1.19777C61.7036 1.27924 62.1138 2.10881 62.5499 2.98852C62.9666 3.8369 63.4414 4.80356 63.9669 4.80356H63.9733C64.8841 4.78476 65.8457 3.3755 66.551 2.34617C66.8396 1.92786 67.083 1.56595 67.2813 1.35993L67.4675 1.53461C67.2813 1.72184 67.0443 2.07748 66.7622 2.48953C66.0311 3.56194 65.0252 5.04092 63.9798 5.05972C63.9733 5.05972 63.9733 5.05972 63.9669 5.05972C63.281 5.05972 62.7869 4.06721 62.3129 3.10054C61.9349 2.3211 61.5367 1.50955 61.12 1.44766C60.9789 1.42886 60.8314 1.4978 60.6718 1.65995C60.0496 2.3023 59.5555 4.59754 59.0751 6.81835C58.4085 9.92515 57.9467 11.8342 57.2156 12.0402C57.081 12.0778 56.9528 12.059 56.8247 11.9901C56.1831 11.6282 55.7349 9.88128 55.2215 7.85395C54.7604 6.05145 54.2857 4.18001 53.6957 3.58701C53.3942 3.28777 53.1186 3.14441 52.8558 3.15068C52.3939 3.16321 51.9651 3.65594 51.471 4.21761C51.176 4.54819 50.8488 4.92811 50.4708 5.24694C49.0924 6.40709 48.4194 7.32362 47.0983 9.29533C46.4704 10.2244 45.9892 11.2169 45.5209 12.1773C44.9632 13.3186 44.4376 14.3918 43.7001 15.353C43.4502 15.6836 43.2262 15.9954 43.0077 16.2946C42.1937 17.4297 41.5714 18.2906 40.6743 18.2969C40.5139 18.2969 40.3406 18.2718 40.1617 18.2099C39.4564 17.9851 38.9752 16.8187 38.4561 15.5833C37.9491 14.3793 37.43 13.1259 36.8142 13.2066C36.1154 13.2944 35.5512 14.7099 35.0063 16.0761C34.5573 17.1994 34.0963 18.3595 33.4934 19.0458C32.3134 20.3806 31.6016 20.936 30.4796 20.936C30.3201 20.936 30.1597 20.9235 29.9799 20.9047C29.2811 20.8177 28.7684 20.1495 28.2679 19.5009C27.7424 18.8147 27.2483 18.1723 26.6139 18.2655C25.9474 18.3595 25.4404 19.1578 24.9019 19.9999C24.4215 20.755 23.921 21.5408 23.2544 21.8588C22.4468 22.2458 21.8503 22.0155 21.2796 21.7906C20.8436 21.6222 20.3882 21.4413 19.824 21.5345C18.997 21.6724 18.4328 21.9779 17.7791 22.3272C17.3817 22.545 16.9714 22.7636 16.4515 22.9759C16.1823 23.0816 15.9454 23.1819 15.7213 23.2751C14.804 23.6496 14.1439 23.9237 13.0477 24.2919C11.6557 24.7604 10.9568 24.935 9.63657 25.2593C9.01432 25.409 8.54037 25.4897 8.07207 25.5711C7.50785 25.6643 6.97587 25.7583 6.23836 25.9636C5.26387 26.2385 4.28938 26.6193 3.57121 26.8934C3.29555 27.0055 3.05213 27.1057 2.85949 27.1739Z" fill="#45AAF7"/>
<mask id="mask1_2734_105956" style="mask-type:luminance" maskUnits="userSpaceOnUse" x="2" y="26" width="2" height="2">
<path d="M2.28809 26.4712H3.41491V27.5546H2.28809V26.4712Z" fill="white"/>
</mask>
<g mask="url(#mask1_2734_105956)">
<path d="M3.32734 27.0554C3.32734 27.122 3.31445 27.1854 3.28785 27.2465C3.26205 27.3076 3.22498 27.3617 3.17662 27.4087C3.12906 27.4549 3.07344 27.4909 3.01057 27.5168C2.9477 27.5419 2.88242 27.5544 2.8139 27.5544C2.7462 27.5544 2.68091 27.5419 2.61804 27.5168C2.55517 27.4909 2.49955 27.4549 2.45119 27.4087C2.40363 27.3617 2.36656 27.3076 2.33996 27.2465C2.31417 27.1854 2.30127 27.122 2.30127 27.0554C2.30127 26.9896 2.31417 26.9254 2.33996 26.8643C2.36656 26.8032 2.40363 26.7491 2.45119 26.7029C2.49955 26.6559 2.55517 26.6198 2.61804 26.5948C2.68091 26.5689 2.7462 26.5564 2.8139 26.5564C2.88242 26.5564 2.9477 26.5689 3.01057 26.5948C3.07344 26.6198 3.12906 26.6559 3.17662 26.7029C3.22498 26.7491 3.26205 26.8032 3.28785 26.8643C3.31445 26.9254 3.32734 26.9896 3.32734 27.0554Z" fill="#45AAF7"/>
</g>
<path d="M6.72627 25.8452C6.72627 25.9118 6.71257 25.9752 6.68677 26.0363C6.66098 26.0974 6.6239 26.1515 6.57554 26.1985C6.52718 26.2447 6.47237 26.2807 6.4095 26.3066C6.34663 26.3317 6.28134 26.3442 6.21283 26.3442C6.14512 26.3442 6.07983 26.3317 6.01696 26.3066C5.95409 26.2807 5.89848 26.2447 5.85012 26.1985C5.80256 26.1515 5.76548 26.0974 5.73888 26.0363C5.71309 25.9752 5.7002 25.9118 5.7002 25.8452C5.7002 25.7794 5.71309 25.7152 5.73888 25.6541C5.76548 25.5929 5.80256 25.5389 5.85012 25.4927C5.89848 25.4457 5.95409 25.4096 6.01696 25.3846C6.07983 25.3587 6.14512 25.3462 6.21283 25.3462C6.28134 25.3462 6.34663 25.3587 6.4095 25.3846C6.47237 25.4096 6.52718 25.4457 6.57554 25.4927C6.6239 25.5389 6.66098 25.5929 6.68677 25.6541C6.71257 25.7152 6.72627 25.7794 6.72627 25.8452Z" fill="#45AAF7"/>
<path d="M10.1234 25.1404C10.1234 25.2069 10.1105 25.2704 10.0847 25.3315C10.0589 25.3926 10.0219 25.4466 9.97349 25.4936C9.92513 25.5407 9.86951 25.5767 9.80745 25.6018C9.74458 25.6268 9.67848 25.6394 9.61078 25.6394C9.54307 25.6394 9.47698 25.6268 9.41411 25.6018C9.35204 25.5767 9.29643 25.5407 9.24807 25.4936C9.1997 25.4466 9.16263 25.3926 9.13683 25.3315C9.11104 25.2704 9.09814 25.2069 9.09814 25.1404C9.09814 25.0746 9.11104 25.0111 9.13683 24.95C9.16263 24.8881 9.1997 24.8348 9.24807 24.7878C9.29643 24.7408 9.35204 24.7048 9.41411 24.6797C9.47698 24.6539 9.54307 24.6414 9.61078 24.6414C9.67848 24.6414 9.74458 24.6539 9.80745 24.6797C9.86951 24.7048 9.92513 24.7408 9.97349 24.7878C10.0219 24.8348 10.0589 24.8881 10.0847 24.95C10.1105 25.0111 10.1234 25.0746 10.1234 25.1404Z" fill="#45AAF7"/>
<path d="M13.5217 24.1799C13.5217 24.2457 13.5088 24.3099 13.483 24.371C13.4564 24.4321 13.4193 24.4862 13.3718 24.5324C13.3234 24.5794 13.2678 24.6155 13.2049 24.6413C13.142 24.6664 13.0768 24.6789 13.009 24.6789C12.9405 24.6789 12.8752 24.6664 12.8124 24.6413C12.7495 24.6155 12.6947 24.5794 12.6463 24.5324C12.598 24.4862 12.5609 24.4321 12.5351 24.371C12.5093 24.3099 12.4956 24.2457 12.4956 24.1799C12.4956 24.1133 12.5093 24.0499 12.5351 23.9888C12.5609 23.9277 12.598 23.8736 12.6463 23.8266C12.6947 23.7804 12.7495 23.7444 12.8124 23.7185C12.8752 23.6934 12.9405 23.6809 13.009 23.6809C13.0768 23.6809 13.142 23.6934 13.2049 23.7185C13.2678 23.7444 13.3234 23.7804 13.3718 23.8266C13.4193 23.8736 13.4564 23.9277 13.483 23.9888C13.5088 24.0499 13.5217 24.1133 13.5217 24.1799Z" fill="#45AAF7"/>
<path d="M16.9201 22.8637C16.9201 22.9295 16.9072 22.993 16.8814 23.0541C16.8548 23.1152 16.8178 23.1693 16.7702 23.2163C16.7218 23.2633 16.6662 23.2993 16.6033 23.3244C16.5405 23.3502 16.4752 23.3627 16.4075 23.3627C16.339 23.3627 16.2737 23.3502 16.2108 23.3244C16.1479 23.2993 16.0923 23.2633 16.0448 23.2163C15.9964 23.1693 15.9593 23.1152 15.9335 23.0541C15.9069 22.993 15.894 22.9295 15.894 22.8637C15.894 22.7972 15.9069 22.7337 15.9335 22.6726C15.9593 22.6115 15.9964 22.5575 16.0448 22.5105C16.0923 22.4634 16.1479 22.4274 16.2108 22.4023C16.2737 22.3773 16.339 22.3647 16.4075 22.3647C16.4752 22.3647 16.5405 22.3773 16.6033 22.4023C16.6662 22.4274 16.7218 22.4634 16.7702 22.5105C16.8178 22.5575 16.8548 22.6115 16.8814 22.6726C16.9072 22.7337 16.9201 22.7972 16.9201 22.8637Z" fill="#45AAF7"/>
<path d="M20.3181 21.4162C20.3181 21.4828 20.3052 21.5463 20.2786 21.6074C20.2528 21.6685 20.2157 21.7225 20.1673 21.7695C20.1198 21.8157 20.0642 21.8518 20.0013 21.8776C19.9384 21.9027 19.8731 21.9152 19.8046 21.9152C19.7369 21.9152 19.6716 21.9027 19.6088 21.8776C19.5459 21.8518 19.4903 21.8157 19.4419 21.7695C19.3944 21.7225 19.3573 21.6685 19.3315 21.6074C19.3049 21.5463 19.292 21.4828 19.292 21.4162C19.292 21.3504 19.3049 21.2862 19.3315 21.2251C19.3573 21.164 19.3944 21.1099 19.4419 21.0637C19.4903 21.0167 19.5459 20.9807 19.6088 20.9548C19.6716 20.9298 19.7369 20.9172 19.8046 20.9172C19.8731 20.9172 19.9384 20.9298 20.0013 20.9548C20.0642 20.9807 20.1198 21.0167 20.1673 21.0637C20.2157 21.1099 20.2528 21.164 20.2786 21.2251C20.3052 21.2862 20.3181 21.3504 20.3181 21.4162Z" fill="#45AAF7"/>
<path d="M23.716 21.7466C23.716 21.8131 23.7023 21.8766 23.6765 21.9377C23.6507 21.9988 23.6136 22.0528 23.5653 22.0999C23.5177 22.1461 23.4621 22.1821 23.3992 22.208C23.3364 22.233 23.2711 22.2456 23.2026 22.2456C23.1349 22.2456 23.0696 22.233 23.0067 22.208C22.9438 22.1821 22.8882 22.1461 22.8399 22.0999C22.7923 22.0528 22.7552 21.9988 22.7286 21.9377C22.7028 21.8766 22.6899 21.8131 22.6899 21.7466C22.6899 21.6808 22.7028 21.6165 22.7286 21.5554C22.7552 21.4943 22.7923 21.4403 22.8399 21.394C22.8882 21.347 22.9438 21.311 23.0067 21.2859C23.0696 21.2601 23.1349 21.2476 23.2026 21.2476C23.2711 21.2476 23.3364 21.2601 23.3992 21.2859C23.4621 21.311 23.5177 21.347 23.5653 21.394C23.6136 21.4403 23.6507 21.4943 23.6765 21.5554C23.7023 21.6165 23.716 21.6808 23.716 21.7466Z" fill="#45AAF7"/>
<path d="M27.1136 18.1472C27.1136 18.2138 27.1007 18.2772 27.075 18.3383C27.0492 18.3994 27.0121 18.4535 26.9637 18.5005C26.9154 18.5467 26.8606 18.5827 26.7977 18.6086C26.7348 18.6337 26.6687 18.6462 26.601 18.6462C26.5333 18.6462 26.4672 18.6337 26.4051 18.6086C26.3423 18.5827 26.2867 18.5467 26.2383 18.5005C26.1899 18.4535 26.1529 18.3994 26.1271 18.3383C26.1013 18.2772 26.0884 18.2138 26.0884 18.1472C26.0884 18.0814 26.1013 18.0172 26.1271 17.9561C26.1529 17.895 26.1899 17.8409 26.2383 17.7947C26.2867 17.7477 26.3423 17.7116 26.4051 17.6866C26.4672 17.6607 26.5333 17.6482 26.601 17.6482C26.6687 17.6482 26.7348 17.6607 26.7977 17.6866C26.8606 17.7116 26.9154 17.7477 26.9637 17.7947C27.0121 17.8409 27.0492 17.895 27.075 17.9561C27.1007 18.0172 27.1136 18.0814 27.1136 18.1472Z" fill="#45AAF7"/>
<path d="M30.5116 20.7864C30.5116 20.8522 30.4987 20.9164 30.4729 20.9775C30.4463 21.0386 30.4092 21.0926 30.3617 21.1389C30.3133 21.1859 30.2577 21.2219 30.1948 21.247C30.132 21.2728 30.0667 21.2853 29.999 21.2853C29.9304 21.2853 29.8652 21.2728 29.8023 21.247C29.7394 21.2219 29.6846 21.1859 29.6362 21.1389C29.5879 21.0926 29.5508 21.0386 29.525 20.9775C29.4992 20.9164 29.4863 20.8522 29.4863 20.7864C29.4863 20.7198 29.4992 20.6563 29.525 20.5952C29.5508 20.5341 29.5879 20.4801 29.6362 20.4331C29.6846 20.3868 29.7394 20.3508 29.8023 20.325C29.8652 20.2999 29.9304 20.2874 29.999 20.2874C30.0667 20.2874 30.132 20.2999 30.1948 20.325C30.2577 20.3508 30.3133 20.3868 30.3617 20.4331C30.4092 20.4801 30.4463 20.5341 30.4729 20.5952C30.4987 20.6563 30.5116 20.7198 30.5116 20.7864Z" fill="#45AAF7"/>
<path d="M33.9104 18.9704C33.9104 19.037 33.8975 19.1005 33.8717 19.1616C33.8451 19.2227 33.808 19.2767 33.7604 19.3237C33.7121 19.3707 33.6565 19.4068 33.5936 19.4318C33.5307 19.4569 33.4654 19.4694 33.3977 19.4694C33.3292 19.4694 33.2639 19.4569 33.201 19.4318C33.1382 19.4068 33.0826 19.3707 33.035 19.3237C32.9866 19.2767 32.9496 19.2227 32.9238 19.1616C32.8972 19.1005 32.8843 19.037 32.8843 18.9704C32.8843 18.9046 32.8972 18.8412 32.9238 18.7801C32.9496 18.719 32.9866 18.6649 33.035 18.6179C33.0826 18.5709 33.1382 18.5349 33.201 18.5098C33.2639 18.484 33.3292 18.4714 33.3977 18.4714C33.4654 18.4714 33.5307 18.484 33.5936 18.5098C33.6565 18.5349 33.7121 18.5709 33.7604 18.6179C33.808 18.6649 33.8451 18.719 33.8717 18.7801C33.8975 18.8412 33.9104 18.9046 33.9104 18.9704Z" fill="#45AAF7"/>
<path d="M37.3083 13.0945C37.3083 13.1603 37.2954 13.2237 37.2688 13.2856C37.243 13.3467 37.2059 13.4 37.1576 13.447C37.11 13.494 37.0544 13.53 36.9915 13.5551C36.9287 13.5809 36.8634 13.5935 36.7949 13.5935C36.7272 13.5935 36.6619 13.5809 36.599 13.5551C36.5361 13.53 36.4805 13.494 36.433 13.447C36.3846 13.4 36.3475 13.3467 36.3217 13.2856C36.2951 13.2237 36.2822 13.1603 36.2822 13.0945C36.2822 13.0279 36.2951 12.9644 36.3217 12.9033C36.3475 12.8422 36.3846 12.7882 36.433 12.7412C36.4805 12.6942 36.5361 12.6581 36.599 12.6331C36.6619 12.608 36.7272 12.5955 36.7949 12.5955C36.8634 12.5955 36.9287 12.608 36.9915 12.6331C37.0544 12.6581 37.11 12.6942 37.1576 12.7412C37.2059 12.7882 37.243 12.8422 37.2688 12.9033C37.2954 12.9644 37.3083 13.0279 37.3083 13.0945Z" fill="#45AAF7"/>
<path d="M40.7067 18.0971C40.7067 18.1637 40.693 18.2272 40.6672 18.2883C40.6414 18.3494 40.6044 18.4034 40.556 18.4504C40.5085 18.4974 40.4528 18.5335 40.39 18.5585C40.3271 18.5836 40.2618 18.5969 40.1933 18.5969C40.1256 18.5969 40.0603 18.5836 39.9974 18.5585C39.9346 18.5335 39.8789 18.4974 39.8306 18.4504C39.783 18.4034 39.746 18.3494 39.7194 18.2883C39.6936 18.2272 39.6807 18.1637 39.6807 18.0971C39.6807 18.0313 39.6936 17.9679 39.7194 17.9068C39.746 17.8457 39.783 17.7916 39.8306 17.7446C39.8789 17.6976 39.9346 17.6616 39.9974 17.6365C40.0603 17.6115 40.1256 17.5981 40.1933 17.5981C40.2618 17.5981 40.3271 17.6115 40.39 17.6365C40.4528 17.6616 40.5085 17.6976 40.556 17.7446C40.6044 17.7916 40.6414 17.8457 40.6672 17.9068C40.693 17.9679 40.7067 18.0313 40.7067 18.0971Z" fill="#45AAF7"/>
<path d="M44.1039 15.2839C44.1039 15.3497 44.091 15.4139 44.0652 15.475C44.0394 15.5362 44.0023 15.5902 43.954 15.6364C43.9056 15.6834 43.8508 15.7195 43.7879 15.7453C43.725 15.7704 43.659 15.7829 43.5912 15.7829C43.5235 15.7829 43.4583 15.7704 43.3954 15.7453C43.3325 15.7195 43.2769 15.6834 43.2285 15.6364C43.1802 15.5902 43.1431 15.5362 43.1173 15.475C43.0915 15.4139 43.0786 15.3497 43.0786 15.2839C43.0786 15.2173 43.0915 15.1539 43.1173 15.0928C43.1431 15.0317 43.1802 14.9776 43.2285 14.9306C43.2769 14.8844 43.3325 14.8484 43.3954 14.8225C43.4583 14.7974 43.5235 14.7849 43.5912 14.7849C43.659 14.7849 43.725 14.7974 43.7879 14.8225C43.8508 14.8484 43.9056 14.8844 43.954 14.9306C44.0023 14.9776 44.0394 15.0317 44.0652 15.0928C44.091 15.1539 44.1039 15.2173 44.1039 15.2839Z" fill="#45AAF7"/>
<path d="M47.5018 9.23264C47.5018 9.29923 47.4889 9.36268 47.4631 9.42378C47.4373 9.48488 47.4003 9.53893 47.3519 9.58593C47.3035 9.63294 47.2479 9.66897 47.1851 9.69404C47.1222 9.71911 47.0569 9.73164 46.9892 9.73164C46.9215 9.73164 46.8554 9.71911 46.7925 9.69404C46.7297 9.66897 46.6748 9.63294 46.6265 9.58593C46.5781 9.53893 46.541 9.48488 46.5153 9.42378C46.4895 9.36268 46.4766 9.29923 46.4766 9.23264C46.4766 9.16684 46.4895 9.10339 46.5153 9.0415C46.541 8.9804 46.5781 8.92713 46.6265 8.88013C46.6748 8.83313 46.7297 8.79709 46.7925 8.77203C46.8554 8.74618 46.9215 8.73364 46.9892 8.73364C47.0569 8.73364 47.1222 8.74618 47.1851 8.77203C47.2479 8.79709 47.3035 8.83313 47.3519 8.88013C47.4003 8.92713 47.4373 8.9804 47.4631 9.0415C47.4889 9.10339 47.5018 9.16684 47.5018 9.23264Z" fill="#45AAF7"/>
<path d="M50.9001 5.15915C50.9001 5.22574 50.8872 5.28919 50.8614 5.35029C50.8348 5.4114 50.7977 5.46545 50.7502 5.51245C50.7018 5.55867 50.6462 5.5947 50.5833 5.62055C50.5205 5.64562 50.4552 5.65815 50.3875 5.65815C50.319 5.65815 50.2537 5.64562 50.1908 5.62055C50.1279 5.5947 50.0723 5.55867 50.0248 5.51245C49.9764 5.46545 49.9393 5.4114 49.9135 5.35029C49.8877 5.28919 49.874 5.22574 49.874 5.15915C49.874 5.09335 49.8877 5.02912 49.9135 4.96802C49.9393 4.90691 49.9764 4.85286 50.0248 4.80664C50.0723 4.75964 50.1279 4.72361 50.1908 4.69854C50.2537 4.67269 50.319 4.66016 50.3875 4.66016C50.4552 4.66016 50.5205 4.67269 50.5833 4.69854C50.6462 4.72361 50.7018 4.75964 50.7502 4.80664C50.7977 4.85286 50.8348 4.90691 50.8614 4.96802C50.8872 5.02912 50.9001 5.09335 50.9001 5.15915Z" fill="#45AAF7"/>
<path d="M54.2985 3.49997C54.2985 3.56578 54.2856 3.63001 54.259 3.69111C54.2332 3.75222 54.1962 3.80627 54.1478 3.85249C54.1003 3.89949 54.0446 3.93552 53.9818 3.96059C53.9189 3.98644 53.8536 3.99897 53.7859 3.99897C53.7174 3.99897 53.6521 3.98644 53.5892 3.96059C53.5264 3.93552 53.4707 3.89949 53.4232 3.85249C53.3748 3.80627 53.3377 3.75222 53.312 3.69111C53.2854 3.63001 53.2725 3.56578 53.2725 3.49997C53.2725 3.43339 53.2854 3.36994 53.312 3.30884C53.3377 3.24773 53.3748 3.19368 53.4232 3.14668C53.4707 3.10046 53.5264 3.06443 53.5892 3.03858C53.6521 3.01351 53.7174 3.00098 53.7859 3.00098C53.8536 3.00098 53.9189 3.01351 53.9818 3.03858C54.0446 3.06443 54.1003 3.10046 54.1478 3.14668C54.1962 3.19368 54.2332 3.24773 54.259 3.30884C54.2856 3.36994 54.2985 3.43339 54.2985 3.49997Z" fill="#45AAF7"/>
<path d="M57.697 11.9219C57.697 11.9877 57.6841 12.0512 57.6575 12.1123C57.6317 12.1734 57.5946 12.2274 57.5462 12.2744C57.4987 12.3214 57.4431 12.3574 57.3802 12.3825C57.3173 12.4076 57.252 12.4209 57.1835 12.4209C57.1158 12.4209 57.0505 12.4076 56.9877 12.3825C56.9248 12.3574 56.8692 12.3214 56.8208 12.2744C56.7733 12.2274 56.7362 12.1734 56.7096 12.1123C56.6838 12.0512 56.6709 11.9877 56.6709 11.9219C56.6709 11.8553 56.6838 11.7919 56.7096 11.7308C56.7362 11.6697 56.7733 11.6156 56.8208 11.5686C56.8692 11.5216 56.9248 11.4856 56.9877 11.4605C57.0505 11.4354 57.1158 11.4221 57.1835 11.4221C57.252 11.4221 57.3173 11.4354 57.3802 11.4605C57.4431 11.4856 57.4987 11.5216 57.5462 11.5686C57.5946 11.6156 57.6317 11.6697 57.6575 11.7308C57.6841 11.7919 57.697 11.8553 57.697 11.9219Z" fill="#45AAF7"/>
<path d="M61.0949 1.57224C61.0941 1.63883 61.0812 1.70228 61.0554 1.76338C61.0296 1.82448 60.9926 1.87853 60.9442 1.92553C60.8958 1.97175 60.841 2.00779 60.7782 2.03364C60.7153 2.0587 60.65 2.07124 60.5815 2.07124C60.5138 2.07124 60.4485 2.0587 60.3856 2.03364C60.3227 2.00779 60.2671 1.97175 60.2188 1.92553C60.1712 1.87853 60.1341 1.82448 60.1075 1.76338C60.0817 1.70228 60.0688 1.63883 60.0688 1.57224C60.0688 1.50644 60.0817 1.4422 60.1075 1.3811C60.1341 1.32 60.1712 1.26595 60.2188 1.21973C60.2671 1.17273 60.3227 1.13669 60.3856 1.11084C60.4485 1.08578 60.5138 1.07324 60.5815 1.07324C60.65 1.07324 60.7153 1.08578 60.7782 1.11084C60.841 1.13669 60.8958 1.17273 60.9442 1.21973C60.9926 1.26595 61.0296 1.32 61.0554 1.3811C61.0812 1.4422 61.0941 1.50644 61.0949 1.57224Z" fill="#45AAF7"/>
<path d="M64.4921 4.9343C64.4921 5.00089 64.4792 5.06434 64.4534 5.12544C64.4276 5.18654 64.3905 5.24059 64.3421 5.28759C64.2938 5.3346 64.2382 5.37063 64.1753 5.3957C64.1132 5.42077 64.0471 5.4333 63.9794 5.4333C63.9117 5.4333 63.8456 5.42077 63.7828 5.3957C63.7199 5.37063 63.6651 5.3346 63.6167 5.28759C63.5684 5.24059 63.5313 5.18654 63.5055 5.12544C63.4797 5.06434 63.4668 5.00089 63.4668 4.9343C63.4668 4.8685 63.4797 4.80505 63.5055 4.74395C63.5313 4.68284 63.5684 4.62879 63.6167 4.58179C63.6651 4.53479 63.7199 4.49875 63.7828 4.47369C63.8456 4.44784 63.9117 4.4353 63.9794 4.4353C64.0471 4.4353 64.1132 4.44784 64.1753 4.47369C64.2382 4.49875 64.2938 4.53479 64.3421 4.58179C64.3905 4.62879 64.4276 4.68284 64.4534 4.74395C64.4792 4.80505 64.4921 4.8685 64.4921 4.9343Z" fill="#45AAF7"/>
<mask id="mask2_2734_105956" style="mask-type:luminance" maskUnits="userSpaceOnUse" x="66" y="0" width="2" height="3">
<path d="M66.7622 0.802002H67.9052V2.00524H66.7622V0.802002Z" fill="white"/>
</mask>
<g mask="url(#mask2_2734_105956)">
<path d="M67.8908 1.44748C67.8908 1.51329 67.8779 1.57752 67.8521 1.63862C67.8255 1.69973 67.7885 1.75378 67.7409 1.79999C67.6925 1.847 67.6369 1.88303 67.5741 1.9081C67.5112 1.93395 67.4459 1.94648 67.3782 1.94648C67.3097 1.94648 67.2444 1.93395 67.1815 1.9081C67.1186 1.88303 67.063 1.847 67.0155 1.79999C66.9671 1.75378 66.93 1.69973 66.9042 1.63862C66.8784 1.57752 66.8647 1.51329 66.8647 1.44748C66.8647 1.3809 66.8784 1.31745 66.9042 1.25635C66.93 1.19524 66.9671 1.14119 67.0155 1.09419C67.063 1.04797 67.1186 1.01194 67.1815 0.986087C67.2444 0.96102 67.3097 0.948486 67.3782 0.948486C67.4459 0.948486 67.5112 0.96102 67.5741 0.986087C67.6369 1.01194 67.6925 1.04797 67.7409 1.09419C67.7885 1.14119 67.8255 1.19524 67.8521 1.25635C67.8779 1.31745 67.8908 1.3809 67.8908 1.44748Z" fill="#45AAF7"/>
</g>
</g>
<path d="M5.90335 13.0852L9.42085 20.712L12.9351 13.0852H18.8417L11.1071 27.1073H7.73142L0 13.0852H5.90335Z" fill="black"/>
<path d="M17.8545 13.0852V27.1073H22.8325V13.0852H17.8545Z" fill="black"/>
<path d="M38.1884 13.0852L31.0438 23.4161H37.6274V27.1073H22.6934L29.8348 16.7764H23.8734V13.0852H38.1884Z" fill="black"/>
<path d="M39.2687 25.4404C37.6671 24.0554 36.8667 22.2788 36.8667 20.1104C36.8667 17.9421 37.7001 16.1615 39.3686 14.7679C41.0363 13.3728 43.0989 12.6748 45.5557 12.6748C47.9738 12.6748 50.0122 13.3767 51.6718 14.7805C53.3306 16.1842 54.1608 17.9609 54.1608 20.1104C54.1608 22.26 53.3492 24.0327 51.7266 25.4278C50.1057 26.8214 48.0487 27.5178 45.5557 27.5178C42.9675 27.5178 40.8719 26.8254 39.2687 25.4404ZM43.1215 17.7322C42.4767 18.3526 42.1542 19.1453 42.1542 20.1104C42.1542 21.0755 42.4621 21.8644 43.0796 22.4762C43.6986 23.0864 44.5143 23.3911 45.5267 23.3911C46.502 23.3911 47.304 23.0825 47.9318 22.4636C48.5589 21.8432 48.8733 21.0591 48.8733 20.1104C48.8733 19.1453 48.5493 18.3526 47.9028 17.7322C47.2556 17.1117 46.4633 16.8015 45.5267 16.8015C44.5699 16.8015 43.7679 17.1117 43.1215 17.7322Z" fill="black"/>
<path d="M54.3838 27.1074V13.0853H59.3618V15.1095H59.4199C59.4561 15.0366 59.5166 14.9458 59.6004 14.8369C59.6858 14.7264 59.8688 14.5345 60.1485 14.2603C60.4298 13.9869 60.7296 13.7417 61.048 13.524C61.368 13.3046 61.7807 13.1088 62.2861 12.9349C62.7931 12.7618 63.3089 12.6748 63.8337 12.6748C64.3769 12.6748 64.9113 12.7484 65.436 12.8941C65.9624 13.0406 66.3469 13.1871 66.5903 13.3328L66.9836 13.549L64.9041 17.6507C64.285 17.1415 63.4218 16.8861 62.3151 16.8861C61.7154 16.8861 61.1996 17.0138 60.7675 17.2684C60.3371 17.5238 60.0332 17.834 59.8551 18.199C59.6762 18.5625 59.5496 18.8719 59.4747 19.1265C59.3989 19.3819 59.3618 19.5824 59.3618 19.7281V27.1074H54.3838Z" fill="black"/>
<path d="M20.071 5.21385C21.3181 5.21385 22.3424 6.24172 22.3424 7.52657C22.3424 8.7963 21.3329 9.83929 20.071 9.83929C18.8091 9.83929 17.7996 8.81142 17.7996 7.52657C17.8144 6.25684 18.824 5.21385 20.071 5.21385ZM20.071 2.37207C17.28 2.37207 15.0234 4.66968 15.0234 7.51145C15.0234 10.3532 17.28 12.6508 20.071 12.6508C22.862 12.6508 25.1186 10.3532 25.1186 7.51145C25.1334 4.68479 22.862 2.37207 20.071 2.37207Z" fill="#00A3E1"/>
</svg>
