<svg width="18" height="18" viewBox="0 0 18 18" fill="none" xmlns="http://www.w3.org/2000/svg">
<g clip-path="url(#clip0_569_23149)">
<path d="M2 0.5V17.5H15.6009V3.42262L12.6783 0.5H2Z" stroke="#262626" stroke-width="1.2" stroke-miterlimit="10" stroke-linejoin="round"/>
<path d="M12.6782 0.5L15.6008 3.42262H12.6782V0.5Z" stroke="#262626" stroke-width="1.2" stroke-miterlimit="10" stroke-linejoin="round"/>
<path d="M5.29164 5.59011C5.6234 5.59011 5.89235 5.32116 5.89235 4.98939C5.89235 4.65762 5.6234 4.38867 5.29164 4.38867C4.95987 4.38867 4.69092 4.65762 4.69092 4.98939C4.69092 5.32116 4.95987 5.59011 5.29164 5.59011Z" fill="#262626"/>
<path d="M7.45166 4.98926H12.8729" stroke="#262626" stroke-width="1.2" stroke-miterlimit="10"/>
<path d="M5.29164 8.25124C5.6234 8.25124 5.89235 7.98229 5.89235 7.65052C5.89235 7.31875 5.6234 7.0498 5.29164 7.0498C4.95987 7.0498 4.69092 7.31875 4.69092 7.65052C4.69092 7.98229 4.95987 8.25124 5.29164 8.25124Z" fill="#262626"/>
<path d="M7.45166 7.65039H12.8729" stroke="#262626" stroke-width="1.2" stroke-miterlimit="10"/>
<path d="M5.29164 10.9124C5.6234 10.9124 5.89235 10.6434 5.89235 10.3117C5.89235 9.97989 5.6234 9.71094 5.29164 9.71094C4.95987 9.71094 4.69092 9.97989 4.69092 10.3117C4.69092 10.6434 4.95987 10.9124 5.29164 10.9124Z" fill="#262626"/>
<path d="M7.45166 10.3115H12.8729" stroke="#262626" stroke-width="1.2" stroke-miterlimit="10"/>
<path d="M5.29164 13.5745C5.6234 13.5745 5.89235 13.3055 5.89235 12.9738C5.89235 12.642 5.6234 12.373 5.29164 12.373C4.95987 12.373 4.69092 12.642 4.69092 12.9738C4.69092 13.3055 4.95987 13.5745 5.29164 13.5745Z" fill="#262626"/>
<path d="M7.45166 12.9736H12.8729" stroke="#262626" stroke-width="1.2" stroke-miterlimit="10"/>
</g>
<defs>
<clipPath id="clip0_569_23149">
<rect width="18" height="18" fill="white"/>
</clipPath>
</defs>
</svg>
