<svg width="103" height="103" viewBox="0 0 103 103" fill="none" xmlns="http://www.w3.org/2000/svg">
<path d="M51.5 103C41.3143 103 31.3573 99.9796 22.8882 94.3207C14.419 88.6618 7.81814 80.6186 3.92023 71.2082C0.0223146 61.7978 -0.997557 51.4429 0.989581 41.4529C2.97672 31.4628 7.88162 22.2864 15.084 15.084C22.2864 7.88162 31.4628 2.97672 41.4529 0.989581C51.4429 -0.997557 61.7978 0.0223146 71.2082 3.92023C80.6186 7.81814 88.6618 14.419 94.3207 22.8882C99.9796 31.3573 103 41.3143 103 51.5C103 65.1587 97.5741 78.2579 87.916 87.916C78.2579 97.5741 65.1587 103 51.5 103ZM51.5 6.86669C42.6724 6.86669 34.043 9.48439 26.7031 14.3888C19.3632 19.2931 13.6424 26.2639 10.2642 34.4196C6.88601 42.5752 6.00212 51.5495 7.7243 60.2075C9.44649 68.8656 13.6974 76.8185 19.9395 83.0605C26.1816 89.3026 34.1345 93.5535 42.7925 95.2757C51.4505 96.9979 60.4248 96.114 68.5804 92.7358C76.7361 89.3576 83.7069 83.6369 88.6113 76.297C93.5156 68.957 96.1333 60.3276 96.1333 51.5C96.1333 39.6625 91.4309 28.3099 83.0605 19.9395C74.6902 11.5691 63.3375 6.86669 51.5 6.86669Z" fill="#FF9966"/>
<path d="M51.5005 78.9663C50.1424 78.9663 48.8148 78.5635 47.6855 77.809C46.5563 77.0545 45.6762 75.9821 45.1565 74.7274C44.6368 73.4726 44.5008 72.092 44.7657 70.76C45.0307 69.428 45.6847 68.2045 46.645 67.2441C47.6053 66.2838 48.8288 65.6298 50.1608 65.3649C51.4928 65.0999 52.8735 65.2359 54.1282 65.7556C55.3829 66.2753 56.4554 67.1555 57.2099 68.2847C57.9644 69.4139 58.3671 70.7415 58.3671 72.0996C58.3671 73.9207 57.6437 75.6673 56.3559 76.9551C55.0682 78.2428 53.3216 78.9663 51.5005 78.9663ZM51.5005 58.3663C50.5899 58.3663 49.7166 58.0045 49.0727 57.3607C48.4289 56.7168 48.0671 55.8435 48.0671 54.9329V24.0329C48.0671 23.1224 48.4289 22.2491 49.0727 21.6052C49.7166 20.9613 50.5899 20.5996 51.5005 20.5996C52.411 20.5996 53.2843 20.9613 53.9282 21.6052C54.5721 22.2491 54.9338 23.1224 54.9338 24.0329V54.9329C54.9338 55.8435 54.5721 56.7168 53.9282 57.3607C53.2843 58.0045 52.411 58.3663 51.5005 58.3663Z" fill="#FF9966"/>
</svg>
