<svg width="20" height="18" viewBox="0 0 20 18" fill="none" xmlns="http://www.w3.org/2000/svg">
<path d="M1.26294 2.52587H13.1706C13.8622 2.52587 14.4336 1.95455 14.4336 1.26294C14.4336 0.571329 13.8622 0 13.1706 0H1.26294C0.571329 0 0 0.571329 0 1.26294C0 1.95455 0.571329 2.52587 1.26294 2.52587Z" fill="#262626"/>
<path d="M17.9818 7.33691H1.26294C0.571329 7.33691 0 7.90824 0 8.59985C0 9.29146 0.571329 9.86279 1.26294 9.86279H17.9818C18.6734 9.86279 19.2448 9.29146 19.2448 8.59985C19.2448 7.90824 18.6734 7.33691 17.9818 7.33691Z" fill="#262626"/>
<path d="M13.1706 14.6738H1.26294C0.571329 14.6738 0 15.2452 0 15.9368C0 16.6284 0.571329 17.1997 1.26294 17.1997H13.1706C13.8622 17.1997 14.4336 16.6284 14.4336 15.9368C14.4336 15.2452 13.8622 14.6738 13.1706 14.6738Z" fill="#262626"/>
</svg>
