<svg width="20" height="18" viewBox="0 0 20 18" fill="none" xmlns="http://www.w3.org/2000/svg">
<path d="M1.26294 2.52587H13.1706C13.8622 2.52587 14.4336 1.95455 14.4336 1.26294C14.4336 0.571329 13.8622 0 13.1706 0H1.26294C0.571329 0 0 0.571329 0 1.26294C0 1.95455 0.571329 2.52587 1.26294 2.52587Z" fill="white"/>
<path d="M17.9818 7.33704H1.26294C0.571329 7.33704 0 7.90837 0 8.59997C0 9.29158 0.571329 9.86291 1.26294 9.86291H17.9818C18.6734 9.86291 19.2448 9.29158 19.2448 8.59997C19.2448 7.90837 18.6734 7.33704 17.9818 7.33704Z" fill="white"/>
<path d="M13.1706 14.6741H1.26294C0.571329 14.6741 0 15.2454 0 15.937C0 16.6286 0.571329 17.1999 1.26294 17.1999H13.1706C13.8622 17.1999 14.4336 16.6286 14.4336 15.937C14.4336 15.2454 13.8622 14.6741 13.1706 14.6741Z" fill="white"/>
</svg>
