<svg width="20" height="20" viewBox="0 0 20 20" fill="none" xmlns="http://www.w3.org/2000/svg">
<path d="M1.85372 19.1668H4.76378C5.32646 19.1656 5.78116 18.7109 5.7823 18.1482V13.4922C5.78116 12.9295 5.32646 12.4748 4.76378 12.4736H1.85372C1.29104 12.4748 0.83634 12.9295 0.835205 13.4922V18.1482C0.836342 18.7109 1.29104 19.1656 1.85372 19.1668ZM1.70822 13.4922C1.70822 13.4114 1.77302 13.3466 1.85372 13.3466H4.76378C4.80243 13.3466 4.83994 13.3614 4.86722 13.3887C4.8945 13.416 4.90928 13.4535 4.90928 13.4922V18.1482C4.90928 18.1869 4.8945 18.2244 4.86722 18.2517C4.83994 18.279 4.80243 18.2937 4.76378 18.2937H1.85372C1.77302 18.2937 1.70822 18.2289 1.70822 18.1482V13.4922Z" fill="#262626" stroke="#262626" stroke-width="0.8"/>
<path d="M11.4569 19.1667C12.0196 19.1655 12.4743 18.7108 12.4754 18.1481V10.582C12.4743 10.0193 12.0196 9.56461 11.4569 9.56348H8.54684C7.98415 9.56461 7.52946 10.0193 7.52832 10.582V18.1481C7.52946 18.7108 7.98415 19.1655 8.54684 19.1667H11.4569ZM8.40134 18.1481V10.582C8.40134 10.5013 8.46613 10.4365 8.54684 10.4365H11.4569C11.4955 10.4365 11.5331 10.4513 11.5603 10.4786C11.5876 10.5058 11.6024 10.5433 11.6024 10.582V18.1481C11.6024 18.1868 11.5876 18.2243 11.5603 18.2516C11.5331 18.2789 11.4955 18.2936 11.4569 18.2936H8.54684C8.46613 18.2936 8.40134 18.2288 8.40134 18.1481Z" fill="#262626" stroke="#262626" stroke-width="0.8"/>
<path d="M18.1498 6.65332H15.2397C14.677 6.65446 14.2223 7.10915 14.2212 7.67184V18.148C14.2223 18.7107 14.677 19.1654 15.2397 19.1665H18.1498C18.7125 19.1654 19.1671 18.7107 19.1683 18.148V7.67184C19.1671 7.10915 18.7125 6.65446 18.1498 6.65332ZM18.2953 18.148C18.2953 18.1867 18.2805 18.2242 18.2532 18.2515C18.2259 18.2788 18.1884 18.2935 18.1498 18.2935H15.2397C15.159 18.2935 15.0942 18.2287 15.0942 18.148V7.67184C15.0942 7.59113 15.159 7.52634 15.2397 7.52634H18.1498C18.1884 7.52634 18.2259 7.54111 18.2532 7.5684C18.2805 7.59568 18.2953 7.63319 18.2953 7.67184V18.148Z" fill="#262626" stroke="#262626" stroke-width="0.8"/>
<path d="M18.7319 0.833008H15.8219C15.5809 0.833008 15.3854 1.02853 15.3854 1.26952C15.3854 1.5105 15.5809 1.70602 15.8219 1.70602H17.6589C11.9048 6.99184 4.16 8.85835 1.1705 9.57451C0.954517 9.62567 0.810147 9.83028 0.836308 10.0508C0.862453 10.2713 1.05002 10.4373 1.27168 10.4362C1.30578 10.4362 1.33989 10.4327 1.37399 10.4248C4.43304 9.6916 12.3696 7.77731 18.2954 2.30516V4.17964C18.2954 4.42062 18.4909 4.61615 18.7319 4.61615C18.9729 4.61615 19.1684 4.42062 19.1684 4.17964V1.26959C19.1684 1.0286 18.9729 0.833008 18.7319 0.833008Z" fill="#262626" stroke="#262626" stroke-width="0.8"/>
</svg>
