<svg width="24" height="24" viewBox="0 0 24 24" fill="none" xmlns="http://www.w3.org/2000/svg">
<g clip-path="url(#clip0_2636_74999)">
<path d="M4.66842 20.25H7.28747C7.79389 20.249 8.20311 19.8397 8.20414 19.3333V15.1428C8.20311 14.6364 7.79389 14.2272 7.28747 14.2262H4.66842C4.162 14.2272 3.75278 14.6364 3.75175 15.1428V19.3333C3.75278 19.8397 4.162 20.249 4.66842 20.25ZM4.53747 15.1428C4.53747 15.0702 4.59578 15.0119 4.66842 15.0119H7.28747C7.32225 15.0119 7.35601 15.0252 7.38057 15.0497C7.40512 15.0743 7.41842 15.1081 7.41842 15.1428V19.3333C7.41842 19.3681 7.40512 19.4019 7.38057 19.4264C7.35601 19.451 7.32225 19.4643 7.28747 19.4643H4.66842C4.59578 19.4643 4.53747 19.406 4.53747 19.3333V15.1428Z" fill="#262626" stroke="#262626" stroke-width="0.8"/>
<path d="M13.3112 20.25C13.8176 20.249 14.2269 19.8398 14.2279 19.3333V12.5238C14.2269 12.0174 13.8176 11.6082 13.3112 11.6071H10.6922C10.1857 11.6082 9.77652 12.0174 9.7755 12.5238V19.3333C9.77652 19.8398 10.1857 20.249 10.6922 20.25H13.3112ZM10.5612 19.3333V12.5238C10.5612 12.4512 10.6195 12.3929 10.6922 12.3929H13.3112C13.346 12.3929 13.3798 12.4062 13.4043 12.4307C13.4289 12.4553 13.4422 12.489 13.4422 12.5238V19.3333C13.4422 19.3681 13.4289 19.4019 13.4043 19.4264C13.3798 19.451 13.346 19.4643 13.3112 19.4643H10.6922C10.6195 19.4643 10.5612 19.406 10.5612 19.3333Z" fill="#262626" stroke="#262626" stroke-width="0.8"/>
<path d="M19.335 8.98808H16.7159C16.2095 8.98911 15.8003 9.39833 15.7992 9.90475V19.3333C15.8003 19.8397 16.2095 20.249 16.7159 20.25H19.335C19.8414 20.249 20.2506 19.8397 20.2516 19.3333V9.90475C20.2506 9.39833 19.8414 8.9891 19.335 8.98808ZM19.4659 19.3333C19.4659 19.3681 19.4526 19.4019 19.4281 19.4264C19.4035 19.451 19.3697 19.4643 19.335 19.4643H16.7159C16.6433 19.4643 16.585 19.406 16.585 19.3333V9.90475C16.585 9.83211 16.6433 9.7738 16.7159 9.7738H19.335C19.3697 9.7738 19.4035 9.7871 19.4281 9.81165C19.4526 9.8362 19.4659 9.86997 19.4659 9.90475V19.3333Z" fill="#262626" stroke="#262626" stroke-width="0.8"/>
<path d="M19.8588 3.75H17.2398C17.0229 3.75 16.8469 3.92597 16.8469 4.14286C16.8469 4.35975 17.0229 4.53571 17.2398 4.53571H18.893C13.7144 9.29295 6.74407 10.9728 4.05352 11.6174C3.85914 11.6634 3.72921 11.8475 3.75275 12.046C3.77628 12.2445 3.94509 12.3939 4.14459 12.3928C4.17528 12.3928 4.20597 12.3898 4.23666 12.3826C6.98981 11.7227 14.1327 9.99987 19.4659 5.07493V6.76197C19.4659 6.97885 19.6419 7.15482 19.8588 7.15482C20.0757 7.15482 20.2516 6.97885 20.2516 6.76197V4.14292C20.2516 3.92603 20.0757 3.75 19.8588 3.75Z" fill="#262626" stroke="#262626" stroke-width="0.8"/>
</g>
<defs>
<clipPath id="clip0_2636_74999">
<rect width="18" height="18" fill="white" transform="translate(3 3)"/>
</clipPath>
</defs>
</svg>
