<svg width="14" height="15" viewBox="0 0 14 15" fill="none" xmlns="http://www.w3.org/2000/svg">
<path d="M10.2314 0.975C7.33994 -0.675 3.78118 -0.15 1.48282 2.1V0.75C1.48282 0.3 1.18625 0 0.741409 0C0.296563 0 0 0.3 0 0.75V4.125C0 4.575 0.296563 4.875 0.741409 4.875H4.07775C4.52259 4.875 4.81916 4.575 4.81916 4.125C4.81916 3.675 4.52259 3.375 4.07775 3.375H2.29837C3.33634 2.175 4.8933 1.5 6.59854 1.5C9.86073 1.5 12.5298 4.2 12.5298 7.5C12.5298 10.8 9.86073 13.5 6.59854 13.5C6.15369 13.5 5.85713 13.8 5.85713 14.25C5.85713 14.7 6.15369 15 6.59854 15C9.26761 15 11.7143 13.575 13.0488 11.25C15.0506 7.65 13.7902 3.075 10.2314 0.975ZM6.52439 4.5C6.07955 4.5 5.78299 4.8 5.78299 5.25V7.5C5.78299 7.95 6.07955 8.25 6.52439 8.25H8.00721C8.45206 8.25 8.74862 7.95 8.74862 7.5C8.74862 7.05 8.45206 6.75 8.00721 6.75H7.2658V5.25C7.2658 4.8 6.96924 4.5 6.52439 4.5Z" fill="#262626"/>
</svg>
