<svg width="24" height="24" viewBox="0 0 24 24" fill="none" xmlns="http://www.w3.org/2000/svg">
<g clip-path="url(#clip0_2636_74997)">
<path d="M5 3.5V20.5H18.6009V6.42262L15.6783 3.5H5Z" stroke="#262626" stroke-width="1.2" stroke-miterlimit="10" stroke-linejoin="round"/>
<path d="M15.6783 3.5L18.6009 6.42262H15.6783V3.5Z" stroke="#262626" stroke-width="1.2" stroke-miterlimit="10" stroke-linejoin="round"/>
<path d="M8.29156 8.59C8.62333 8.59 8.89228 8.32105 8.89228 7.98928C8.89228 7.65752 8.62333 7.38857 8.29156 7.38857C7.95979 7.38857 7.69084 7.65752 7.69084 7.98928C7.69084 8.32105 7.95979 8.59 8.29156 8.59Z" fill="#262626"/>
<path d="M10.4515 7.98924H15.8727" stroke="#262626" stroke-width="1.2" stroke-miterlimit="10"/>
<path d="M8.29148 11.2513C8.62325 11.2513 8.8922 10.9824 8.8922 10.6506C8.8922 10.3189 8.62325 10.0499 8.29148 10.0499C7.95972 10.0499 7.69077 10.3189 7.69077 10.6506C7.69077 10.9824 7.95972 11.2513 8.29148 11.2513Z" fill="#262626"/>
<path d="M10.4514 10.6505H15.8726" stroke="#262626" stroke-width="1.2" stroke-miterlimit="10"/>
<path d="M8.29148 13.9127C8.62325 13.9127 8.8922 13.6437 8.8922 13.3119C8.8922 12.9802 8.62325 12.7112 8.29148 12.7112C7.95972 12.7112 7.69077 12.9802 7.69077 13.3119C7.69077 13.6437 7.95972 13.9127 8.29148 13.9127Z" fill="#262626"/>
<path d="M10.4514 13.3119H15.8726" stroke="#262626" stroke-width="1.2" stroke-miterlimit="10"/>
<path d="M8.29148 16.574C8.62325 16.574 8.8922 16.305 8.8922 15.9733C8.8922 15.6415 8.62325 15.3726 8.29148 15.3726C7.95972 15.3726 7.69077 15.6415 7.69077 15.9733C7.69077 16.305 7.95972 16.574 8.29148 16.574Z" fill="#262626"/>
<path d="M10.4514 15.9733H15.8726" stroke="#262626" stroke-width="1.2" stroke-miterlimit="10"/>
</g>
<defs>
<clipPath id="clip0_2636_74997">
<rect width="18" height="18" fill="white" transform="translate(3 3)"/>
</clipPath>
</defs>
</svg>
