<svg width="22" height="28" viewBox="0 0 22 28" fill="none" xmlns="http://www.w3.org/2000/svg">
<path d="M13.6875 8.13622L9.80638 4.3795C9.57039 4.14989 9.24829 4.01913 8.91663 4.01913L1.60729 4C0.720729 4 0 4.71435 0 5.59453V18.7271C0 19.5913 0.743052 20.3248 1.62323 20.3248H12.4342C13.2984 20.3248 14 19.6073 14 18.7239V8.89841C14 8.60182 13.8884 8.33075 13.6875 8.13622ZM9.79043 6.13986L11.7964 8.07882H10.138C9.95308 8.07882 9.79043 7.93531 9.79043 7.77267V6.13986ZM12.4342 19.0492H1.62323C1.44465 19.0492 1.27563 18.8929 1.27563 18.7239V5.59453C1.27563 5.42551 1.43189 5.27563 1.60729 5.27563L8.51481 5.29476V7.77267C8.51481 8.64328 9.24191 9.35444 10.138 9.35444H12.7244V18.7239C12.7244 18.8834 12.6159 19.0492 12.4342 19.0492Z" fill="#262626"/>
<path d="M2.5 19L3 20.5L3.5 22.5L5 24V25H12V24.5L12.5 18.5L11.5 17.5L10.5 18L10 17L9 17.5L8.5 17H7.5L7 12.5H5.5V20L5 20.5L3.5 18.5H2.5V19Z" fill="white"/>
<path d="M5.14447 24.4693C5.07761 24.4693 5.01017 24.4455 4.95634 24.3979L4.16301 23.6929C3.73347 23.3065 3.39801 22.8203 3.19117 22.2853L2.05047 19.1347C1.90314 18.7284 2.08787 18.2841 2.48057 18.1016C3.08634 17.8223 3.83661 18.0818 4.14374 18.6762L5.01131 20.421C5.13597 20.2397 5.20624 20.0226 5.20624 19.7977V13.1167C5.20624 12.4916 5.71454 11.9833 6.33957 11.9833C6.96461 11.9833 7.47291 12.4916 7.47291 13.1167V16.6691C7.63951 16.5722 7.83331 16.5167 8.03957 16.5167C8.45154 16.5167 8.81194 16.7371 9.01084 17.0663C9.20804 16.9003 9.46247 16.8 9.73957 16.8C10.2331 16.8 10.6542 17.1173 10.8094 17.5588C10.9896 17.4375 11.2067 17.3667 11.4396 17.3667C12.0646 17.3667 12.5729 17.875 12.5729 18.5V23.0843C12.5729 23.5218 12.4437 23.9462 12.2006 24.3129C12.1145 24.4432 11.9388 24.4778 11.8079 24.3916C11.6781 24.3055 11.6424 24.1293 11.7291 23.9989C11.9105 23.7264 12.0062 23.4096 12.0062 23.0843V18.5C12.0062 18.1872 11.7524 17.9333 11.4396 17.9333C11.1268 17.9333 10.8729 18.1872 10.8729 18.5C10.8729 18.6564 10.746 18.7833 10.5896 18.7833C10.4332 18.7833 10.3062 18.6564 10.3062 18.5V17.9333C10.3062 17.6205 10.0524 17.3667 9.73957 17.3667C9.42677 17.3667 9.17291 17.6205 9.17291 17.9333C9.17291 18.0897 9.04597 18.2167 8.88957 18.2167C8.73317 18.2167 8.60624 18.0897 8.60624 17.9333V17.65C8.60624 17.3372 8.35237 17.0833 8.03957 17.0833C7.72677 17.0833 7.47291 17.3372 7.47291 17.65C7.47291 17.8064 7.34597 17.9333 7.18957 17.9333C7.03317 17.9333 6.90624 17.8064 6.90624 17.65V13.1167C6.90624 12.8039 6.65237 12.55 6.33957 12.55C6.02677 12.55 5.77291 12.8039 5.77291 13.1167V19.7977C5.77291 20.3213 5.52244 20.8194 5.10254 21.1305C5.03567 21.1809 4.94954 21.1973 4.86737 21.1786C4.78577 21.1588 4.71721 21.1044 4.68037 21.029L3.63771 18.9324C3.46884 18.6071 3.05347 18.4609 2.71801 18.6156C2.59674 18.6723 2.53724 18.8162 2.58257 18.942L3.72157 22.087C3.89724 22.5398 4.17321 22.9398 4.53984 23.2702L5.33204 23.974C5.44877 24.0783 5.46011 24.2573 5.35584 24.3741C5.30031 24.4375 5.22211 24.4693 5.14447 24.4693ZM4.73704 11.7975C4.66451 11.7975 4.59197 11.7697 4.53644 11.7147L4.13581 11.3135C4.02531 11.203 4.02531 11.0234 4.13581 10.9129C4.24631 10.8024 4.42594 10.8024 4.53644 10.9129L4.93707 11.3135C5.04757 11.424 5.04757 11.6037 4.93707 11.7142C4.88211 11.7697 4.80957 11.7975 4.73704 11.7975ZM6.33957 11.1333C6.18317 11.1333 6.05624 11.0064 6.05624 10.85V10.2833C6.05624 10.1269 6.18317 10 6.33957 10C6.49597 10 6.62291 10.1269 6.62291 10.2833V10.85C6.62291 11.0064 6.49597 11.1333 6.33957 11.1333ZM7.94211 11.7975C7.86957 11.7975 7.79704 11.7697 7.74151 11.7147C7.63101 11.6042 7.63101 11.4246 7.74151 11.3141L8.14214 10.9135C8.25264 10.803 8.43227 10.803 8.54277 10.9135C8.65327 11.024 8.65327 11.2036 8.54277 11.3141L8.14214 11.7147C8.08717 11.7697 8.01464 11.7975 7.94211 11.7975ZM9.17291 13.4H8.60624C8.44984 13.4 8.32291 13.2731 8.32291 13.1167C8.32291 12.9603 8.44984 12.8333 8.60624 12.8333H9.17291C9.32931 12.8333 9.45624 12.9603 9.45624 13.1167C9.45624 13.2731 9.32931 13.4 9.17291 13.4ZM4.07291 13.4H3.50624C3.34984 13.4 3.22291 13.2731 3.22291 13.1167C3.22291 12.9603 3.34984 12.8333 3.50624 12.8333H4.07291C4.22931 12.8333 4.35624 12.9603 4.35624 13.1167C4.35624 13.2731 4.22931 13.4 4.07291 13.4Z" fill="#262626" stroke="#262626" stroke-width="0.3"/>
<path d="M12.2895 27.0001C12.1331 27.0001 12.0062 26.8731 12.0062 26.7167V25.3001H5.20618V26.7167C5.20618 26.8731 5.07924 27.0001 4.92284 27.0001C4.76644 27.0001 4.63951 26.8731 4.63951 26.7167V25.0167C4.63951 24.8603 4.76644 24.7334 4.92284 24.7334H12.2895C12.4459 24.7334 12.5728 24.8603 12.5728 25.0167V26.7167C12.5728 26.8731 12.4459 27.0001 12.2895 27.0001Z" fill="#262626" stroke="#262626" stroke-width="0.3"/>
<path d="M20.4 3.528C20.2939 3.528 20.1922 3.57014 20.1172 3.64516C20.0421 3.72017 20 3.82191 20 3.928V6.8C20 6.90609 19.9579 7.00783 19.8828 7.08284C19.8078 7.15786 19.7061 7.2 19.6 7.2H15.2C15.0939 7.2 14.9922 7.15786 14.9172 7.08284C14.8421 7.00783 14.8 6.90609 14.8 6.8V2.4C14.8 2.29391 14.8421 2.19217 14.9172 2.11716C14.9922 2.04214 15.0939 2 15.2 2H18.072C18.1781 2 18.2798 1.95786 18.3548 1.88284C18.4299 1.80783 18.472 1.70609 18.472 1.6C18.472 1.49391 18.4299 1.39217 18.3548 1.31716C18.2798 1.24214 18.1781 1.2 18.072 1.2H15.2C14.8817 1.2 14.5765 1.32643 14.3515 1.55147C14.1264 1.77652 14 2.08174 14 2.4V6.8C14 7.11826 14.1264 7.42348 14.3515 7.64853C14.5765 7.87357 14.8817 8 15.2 8H19.6C19.9183 8 20.2235 7.87357 20.4485 7.64853C20.6736 7.42348 20.8 7.11826 20.8 6.8V3.928C20.8 3.82191 20.7579 3.72017 20.6828 3.64516C20.6078 3.57014 20.5061 3.528 20.4 3.528ZM21.968 0.248C21.9274 0.15026 21.8497 0.0725899 21.752 0.032C21.7039 0.0115036 21.6523 0.000631995 21.6 0H19.2C19.0939 0 18.9922 0.0421427 18.9172 0.117157C18.8421 0.192172 18.8 0.293913 18.8 0.4C18.8 0.506087 18.8421 0.607828 18.9172 0.682843C18.9922 0.757857 19.0939 0.8 19.2 0.8H20.636L16.516 4.916C16.4785 4.95319 16.4488 4.99743 16.4284 5.04617C16.4081 5.09491 16.3977 5.1472 16.3977 5.2C16.3977 5.2528 16.4081 5.30509 16.4284 5.35383C16.4488 5.40257 16.4785 5.44682 16.516 5.484C16.5532 5.52149 16.5974 5.55125 16.6462 5.57156C16.6949 5.59186 16.7472 5.60232 16.8 5.60232C16.8528 5.60232 16.9051 5.59186 16.9538 5.57156C17.0026 5.55125 17.0468 5.52149 17.084 5.484L21.2 1.364V2.8C21.2 2.90609 21.2421 3.00783 21.3172 3.08284C21.3922 3.15786 21.4939 3.2 21.6 3.2C21.7061 3.2 21.8078 3.15786 21.8828 3.08284C21.9579 3.00783 22 2.90609 22 2.8V0.4C21.9994 0.347729 21.9885 0.296089 21.968 0.248Z" fill="#262626"/>
</svg>
