<svg width="216" height="50" viewBox="0 0 216 50" fill="none" xmlns="http://www.w3.org/2000/svg">
<path d="M7.67526 36.446V49.2004H1.10132V26.0172H7.26224V28.4881H7.33108C8.46689 26.0899 10.2911 25.2178 12.838 25.2178V32.1945C9.98131 32.2672 7.67526 32.8486 7.67526 36.446Z" fill="black"/>
<path d="M51.9375 49.2V46.7291H51.8687C50.7329 49.2364 48.6333 49.9631 46.1552 49.9631C43.7459 49.9631 41.3022 49.091 39.7189 47.0198C37.9292 44.6942 37.7227 42.7683 37.7227 39.8613V25.9805H44.2966V38.8076C44.2966 41.4238 44.8473 43.4587 47.8073 43.4587C50.5264 43.4587 51.5589 41.4238 51.5589 38.7349V25.9805H58.1329V49.1637H51.9375V49.2Z" fill="black"/>
<path d="M73.5179 49.2014V36.5196C73.5179 33.9397 73.0361 31.7231 70.0761 31.7231C67.0128 31.7231 66.3244 33.8307 66.3244 36.556V49.165H59.7505V25.9818H65.877V28.4527H65.9458C67.3226 26.0545 69.2844 25.1824 71.9347 25.1824C73.7933 25.1824 76.1337 25.9455 77.5449 27.1809C79.6444 29.0341 80.0919 31.9411 80.0919 34.6664V49.165H73.5179V49.2014Z" fill="black"/>
<path d="M98.8157 49.2004V46.6932H98.7468C97.3701 49.1641 94.7543 49.9635 92.1729 49.9635C85.4268 49.9635 81.1589 44.4039 81.1589 37.5361C81.1589 30.8137 85.4268 25.2178 92.0352 25.2178C94.5822 25.2178 96.7161 26.0535 98.4715 27.9794V18.2773H105.045V49.2004H98.8157ZM93.3087 31.6858C90.1422 31.6858 87.7329 34.1204 87.7329 37.4998C87.7329 40.8792 89.9357 43.4591 93.2398 43.4591C96.5096 43.4591 98.8501 40.9155 98.8501 37.4998C98.8501 34.1568 96.4752 31.6858 93.3087 31.6858Z" fill="black"/>
<path d="M113.409 31.2498V49.1641H106.835V18.241H113.409V25.9808H116.576V31.2498H113.409Z" fill="black"/>
<path d="M133.785 49.2004V46.6932H133.716C132.511 49.0914 129.689 49.9998 127.314 49.9998C120.534 49.9998 116.266 44.4766 116.266 37.5725C116.266 30.8137 120.706 25.2178 127.314 25.2178C129.724 25.2178 132.408 26.1625 133.716 28.4881H133.785V26.0172H140.359V49.2004H133.785ZM128.209 31.6858C125.008 31.6858 122.771 34.3748 122.771 37.6451C122.771 40.8792 125.146 43.4955 128.244 43.4955C131.444 43.4955 133.751 40.9155 133.751 37.5725C133.785 34.1931 131.444 31.6858 128.209 31.6858Z" fill="black"/>
<path d="M154.849 49.9999C152.578 49.9999 149.686 48.9824 148.551 46.7295H148.482V49.2004H142.149V18.2773H148.723V27.8341C150.409 25.9082 152.646 25.2178 155.09 25.2178C156.673 25.2178 158.257 25.6538 159.737 26.3442C163.97 28.4518 165.897 32.6669 165.897 37.4635C165.932 44.4402 161.698 49.9999 154.849 49.9999ZM153.954 31.6858C150.822 31.6858 148.482 34.2658 148.482 37.5361C148.482 40.8428 150.616 43.4955 153.817 43.4955C156.983 43.4955 159.324 40.8792 159.324 37.5725C159.358 34.4111 157.052 31.6858 153.954 31.6858Z" fill="black"/>
<path d="M166.827 49.2004V18.2773H173.401V49.2004H166.827Z" fill="black"/>
<path d="M197.356 39.7164H180.869C181.283 42.478 183.451 44.1132 186.032 44.1132C187.822 44.1132 188.958 43.3501 190.025 41.933H196.771C194.878 46.5841 190.989 49.9635 186.032 49.9635C179.63 49.9635 174.399 44.4402 174.399 37.6815C174.399 30.9591 179.458 25.2178 185.929 25.2178C192.675 25.2178 197.528 30.8864 197.528 37.8995C197.528 38.4809 197.459 39.0623 197.356 39.7164ZM185.963 31.0318C183.589 31.0318 181.489 32.4852 180.973 34.9925H190.954C190.438 32.5216 188.338 31.0318 185.963 31.0318Z" fill="black"/>
<path d="M206.511 49.9998C201.934 49.9998 198.079 47.4199 197.563 42.2963H204.102C204.309 43.7135 205.307 44.4402 206.58 44.4402C207.578 44.4402 208.886 43.8588 208.886 42.6597C208.886 40.9882 207.097 40.4795 205.926 39.9707C204.963 39.6437 204.033 39.3167 203.07 38.9169C200.454 37.8995 197.838 36.119 197.838 32.8486C197.838 28.0157 202.106 25.2178 206.339 25.2178C210.745 25.2178 214.324 27.616 214.772 32.5216H208.336C208.301 31.2134 207.441 30.7774 206.271 30.7774C205.41 30.7774 204.412 31.2861 204.412 32.3399C204.412 35.9736 215.46 33.9387 215.46 42.1146C215.46 47.3109 210.986 49.9998 206.511 49.9998Z" fill="black"/>
<path d="M24.6094 32.0138C27.5006 32.0138 29.8755 34.4847 29.8755 37.5734C29.8755 40.6258 27.535 43.133 24.6094 43.133C21.6838 43.133 19.3434 40.6621 19.3434 37.5734C19.3778 34.5211 21.7183 32.0138 24.6094 32.0138ZM24.6094 25.1824C18.1387 25.1824 12.9071 30.7057 12.9071 37.5371C12.9071 44.3685 18.1387 49.8918 24.6094 49.8918C31.0801 49.8918 36.3117 44.3685 36.3117 37.5371C36.3461 30.742 31.0801 25.1824 24.6094 25.1824Z" fill="#00A3E1"/>
<path d="M9.29301 14.2809V12.4277H9.25859C8.39813 13.8085 6.91813 14.5353 5.36929 14.5353C2.37488 14.5353 0 12.1734 0 8.97566C0 5.81431 2.4093 3.45239 5.36929 3.45239C6.95255 3.45239 8.39813 4.1428 9.25859 5.55996H9.29301V3.70675H10.5665V14.2446H9.29301V14.2809ZM5.36929 4.68786C2.99441 4.68786 1.27349 6.54107 1.27349 9.04834C1.27349 11.5193 3.02883 13.3361 5.36929 13.3361C7.64092 13.3361 9.36185 11.3739 9.36185 9.04834C9.36185 6.65008 7.64092 4.68786 5.36929 4.68786Z" fill="black"/>
<path d="M20.4448 14.2805V12.6454H20.4104C19.8252 13.9535 18.5173 14.5349 17.2094 14.5349C15.9015 14.5349 14.5936 14.0625 13.7676 12.9724C13.0448 12.0276 12.9071 10.7558 12.9071 9.59303V3.77905H14.1806V9.59303C14.1806 11.7733 14.9378 13.3721 17.2094 13.3721C18.0355 13.3721 18.6894 13.1541 19.309 12.5364C20.1694 11.6643 20.3415 10.6105 20.3415 9.375V3.81539H21.615V14.3532H20.4448V14.2805Z" fill="black"/>
<path d="M25.4352 8.10313V14.2805H24.1617V3.74265H25.4352V5.26882H25.4696C26.0203 3.92434 26.9841 3.56096 28.292 3.48828V4.90545C26.5366 5.0508 25.4352 6.21359 25.4352 8.10313Z" fill="black"/>
<path d="M29.7377 2.4346V0H31.0112V2.4346H29.7377ZM29.7377 14.2806V3.74274H31.0112V14.2806H29.7377Z" fill="black"/>
<path d="M43.4017 9.48439H34.3152C34.4185 11.5556 36.2427 13.2998 38.1701 13.2998C39.7189 13.2998 41.1989 12.3914 41.7496 10.8289H43.092C42.3692 13.0091 40.4073 14.5353 38.1701 14.5353C35.2789 14.5353 32.9729 12.0643 32.9729 9.012C32.9729 5.996 35.2789 3.45239 38.1357 3.45239C41.0613 3.45239 43.3673 6.06868 43.3673 9.08468C43.4017 9.23003 43.4017 9.33904 43.4017 9.48439ZM38.2045 4.68786C36.2082 4.68786 34.625 6.21403 34.3152 8.28526H42.0938C41.7496 6.21403 40.2008 4.68786 38.2045 4.68786Z" fill="black"/>
<path d="M58.89 14.2809V8.17625C58.89 6.32304 58.1328 4.68786 56.171 4.68786C54.2091 4.68786 53.4519 6.32304 53.4519 8.17625V14.2809H52.1784V8.17625C52.1784 6.32304 51.4212 4.68786 49.4593 4.68786C47.4975 4.68786 46.7403 6.32304 46.7403 8.17625V14.2809H45.4668V3.74309H46.7403V4.94222C47.3254 3.92477 48.358 3.45239 49.4593 3.45239C50.8705 3.45239 52.1096 4.17913 52.8324 5.48728C53.5896 4.17913 54.7254 3.45239 56.2054 3.45239C58.7524 3.45239 60.1979 5.41461 60.1979 7.99456V14.2446H58.89V14.2809Z" fill="black"/>
<path d="M76.0651 14.2809V8.17625C76.0651 6.32304 75.3079 4.68786 73.346 4.68786C71.3842 4.68786 70.627 6.32304 70.627 8.17625V14.2809H69.3535V8.17625C69.3535 6.32304 68.5963 4.68786 66.6344 4.68786C64.6725 4.68786 63.9153 6.32304 63.9153 8.17625V14.2809H62.6418V3.74309H63.9153V4.94222C64.5004 3.92477 65.533 3.45239 66.6344 3.45239C68.0456 3.45239 69.2846 4.17913 70.0074 5.48728C70.7646 4.17913 71.9004 3.45239 73.3804 3.45239C75.9274 3.45239 77.373 5.41461 77.373 7.99456V14.2446H76.0651V14.2809Z" fill="black"/>
<path d="M88.6966 14.2809V12.4277H88.6622C87.8017 13.8085 86.3217 14.5353 84.7729 14.5353C81.7784 14.5353 79.4036 12.1734 79.4036 8.97566C79.4036 5.81431 81.8129 3.45239 84.7729 3.45239C86.3561 3.45239 87.8017 4.1428 88.6622 5.55996H88.6966V3.70675H89.9701V14.2446H88.6966V14.2809ZM84.7729 4.68786C82.398 4.68786 80.677 6.54107 80.677 9.04834C80.677 11.5193 82.4324 13.3361 84.7729 13.3361C87.0445 13.3361 88.7654 11.3739 88.7654 9.04834C88.7654 6.65008 87.0445 4.68786 84.7729 4.68786Z" fill="black"/>
</svg>
