<svg width="24" height="24" viewBox="0 0 24 24" fill="none" xmlns="http://www.w3.org/2000/svg">
<path d="M4.66667 12.9167C5.675 12.9167 6.5 12.0917 6.5 11.0833C6.5 10.075 5.675 9.25 4.66667 9.25C3.65833 9.25 2.83333 10.075 2.83333 11.0833C2.83333 12.0917 3.65833 12.9167 4.66667 12.9167ZM5.7025 13.925C5.36333 13.87 5.02417 13.8333 4.66667 13.8333C3.75917 13.8333 2.8975 14.0258 2.11833 14.365C1.44 14.6583 1 15.3183 1 16.0608V17.5H5.125V16.0242C5.125 15.2633 5.33583 14.5483 5.7025 13.925ZM19.3333 12.9167C20.3417 12.9167 21.1667 12.0917 21.1667 11.0833C21.1667 10.075 20.3417 9.25 19.3333 9.25C18.325 9.25 17.5 10.075 17.5 11.0833C17.5 12.0917 18.325 12.9167 19.3333 12.9167ZM23 16.0608C23 15.3183 22.56 14.6583 21.8817 14.365C21.1025 14.0258 20.2408 13.8333 19.3333 13.8333C18.9758 13.8333 18.6367 13.87 18.2975 13.925C18.6642 14.5483 18.875 15.2633 18.875 16.0242V17.5H23V16.0608ZM15.8867 13.5125C14.8142 13.0358 13.4942 12.6875 12 12.6875C10.5058 12.6875 9.18583 13.045 8.11333 13.5125C7.12333 13.9525 6.5 14.9425 6.5 16.0242V17.5H17.5V16.0242C17.5 14.9425 16.8767 13.9525 15.8867 13.5125ZM8.3975 15.6667C8.48 15.4558 8.51667 15.3092 9.23167 15.0342C10.1208 14.6858 11.0558 14.5208 12 14.5208C12.9442 14.5208 13.8792 14.6858 14.7683 15.0342C15.4742 15.3092 15.5108 15.4558 15.6025 15.6667H8.3975ZM12 8.33333C12.5042 8.33333 12.9167 8.74583 12.9167 9.25C12.9167 9.75417 12.5042 10.1667 12 10.1667C11.4958 10.1667 11.0833 9.75417 11.0833 9.25C11.0833 8.74583 11.4958 8.33333 12 8.33333ZM12 6.5C10.4783 6.5 9.25 7.72833 9.25 9.25C9.25 10.7717 10.4783 12 12 12C13.5217 12 14.75 10.7717 14.75 9.25C14.75 7.72833 13.5217 6.5 12 6.5Z" fill="#262626"/>
</svg>
