<svg width="25" height="25" viewBox="0 0 25 25" fill="none" xmlns="http://www.w3.org/2000/svg">
<mask id="mask0_364_917" style="mask-type:alpha" maskUnits="userSpaceOnUse" x="0" y="0" width="25" height="25">
<rect x="0.5" y="0.5" width="24" height="24" fill="#D9D9D9"/>
</mask>
<g mask="url(#mask0_364_917)">
<path d="M12.5 12.1924C11.5375 12.1924 10.7136 11.8497 10.0283 11.1644C9.34275 10.4789 9 9.65488 9 8.69238C9 7.72988 9.34275 6.90597 10.0283 6.22063C10.7136 5.53513 11.5375 5.19238 12.5 5.19238C13.4625 5.19238 14.2864 5.53513 14.9718 6.22063C15.6573 6.90597 16 7.72988 16 8.69238C16 9.65488 15.6573 10.4789 14.9718 11.1644C14.2864 11.8497 13.4625 12.1924 12.5 12.1924ZM5 19.8079V17.5846C5 17.095 5.133 16.6415 5.399 16.2241C5.665 15.8068 6.0205 15.486 6.4655 15.2616C7.45383 14.7771 8.45092 14.4137 9.45675 14.1714C10.4626 13.929 11.477 13.8079 12.5 13.8079C13.523 13.8079 14.5374 13.929 15.5433 14.1714C16.5491 14.4137 17.5462 14.7771 18.5345 15.2616C18.9795 15.486 19.335 15.8068 19.601 16.2241C19.867 16.6415 20 17.095 20 17.5846V19.8079H5ZM6.5 18.3079H18.5V17.5846C18.5 17.3821 18.4413 17.1946 18.324 17.0221C18.2067 16.8498 18.0474 16.7091 17.8462 16.6001C16.9846 16.1758 16.1061 15.8543 15.2107 15.6356C14.3152 15.4171 13.4117 15.3079 12.5 15.3079C11.5883 15.3079 10.6848 15.4171 9.78925 15.6356C8.89392 15.8543 8.01542 16.1758 7.15375 16.6001C6.95258 16.7091 6.79333 16.8498 6.676 17.0221C6.55867 17.1946 6.5 17.3821 6.5 17.5846V18.3079ZM12.5 10.6924C13.05 10.6924 13.5208 10.4965 13.9125 10.1049C14.3042 9.71322 14.5 9.24238 14.5 8.69238C14.5 8.14238 14.3042 7.67155 13.9125 7.27988C13.5208 6.88822 13.05 6.69238 12.5 6.69238C11.95 6.69238 11.4792 6.88822 11.0875 7.27988C10.6958 7.67155 10.5 8.14238 10.5 8.69238C10.5 9.24238 10.6958 9.71322 11.0875 10.1049C11.4792 10.4965 11.95 10.6924 12.5 10.6924Z" fill="#0078D4"/>
</g>
</svg>
