<svg width="24" height="24" viewBox="0 0 24 24" fill="none" xmlns="http://www.w3.org/2000/svg">
<path fill-rule="evenodd" clip-rule="evenodd" d="M12.0006 12C9.34021 12 7.17785 9.84717 7.17785 7.19998C7.17785 4.55278 9.34021 2.39998 12.0006 2.39998C14.6609 2.39998 16.8233 4.55278 16.8233 7.19998C16.8233 9.84717 14.6609 12 12.0006 12ZM16.5317 12.8075C17.5231 12.018 18.2878 10.9799 18.7477 9.7989C19.2076 8.61786 19.3464 7.33603 19.15 6.08391C18.6736 2.93631 16.0433 0.417572 12.8669 0.0503722C8.48462 -0.457227 4.7671 2.93878 4.7671 7.19998C4.7671 9.46797 5.82308 11.4887 7.46944 12.8075C3.42312 14.3207 0.468782 17.874 0.00559139 22.6692C-0.0106035 22.8373 0.00847615 23.0071 0.0616022 23.1675C0.114728 23.3279 0.200737 23.4754 0.314127 23.6006C0.427518 23.7259 0.565794 23.826 0.720119 23.8948C0.874444 23.9636 1.04142 23.9994 1.21037 24C1.50652 24.0023 1.79287 23.8941 2.0133 23.6963C2.23373 23.4985 2.37234 23.2255 2.40195 22.9308C2.88554 17.5752 7.00505 14.4 12.0006 14.4C16.9961 14.4 21.1156 17.5752 21.5992 22.9308C21.6288 23.2255 21.7674 23.4985 21.9878 23.6963C22.2082 23.8941 22.4946 24.0023 22.7907 24C23.5059 24 24.0627 23.3784 23.9943 22.6692C23.5323 17.874 20.578 14.3207 16.5305 12.8075" fill="#262626"/>
</svg>
