<svg width="24" height="24" viewBox="0 0 24 24" fill="none" xmlns="http://www.w3.org/2000/svg">
<path d="M12 12.925C11.0167 12.925 10.1875 12.6128 9.5125 11.9884C8.8375 11.3641 8.5 10.5971 8.5 9.6875C8.5 8.77792 8.8375 8.01094 9.5125 7.38656C10.1875 6.76219 11.0167 6.45 12 6.45C12.9833 6.45 13.8125 6.76219 14.4875 7.38656C15.1625 8.01094 15.5 8.77792 15.5 9.6875C15.5 10.5971 15.1625 11.3641 14.4875 11.9884C13.8125 12.6128 12.9833 12.925 12 12.925ZM12 11.075C12.4333 11.075 12.7917 10.944 13.075 10.6819C13.3583 10.4198 13.5 10.0883 13.5 9.6875C13.5 9.28667 13.3583 8.95521 13.075 8.69313C12.7917 8.43104 12.4333 8.3 12 8.3C11.5667 8.3 11.2083 8.43104 10.925 8.69313C10.6417 8.95521 10.5 9.28667 10.5 9.6875C10.5 10.0883 10.6417 10.4198 10.925 10.6819C11.2083 10.944 11.5667 11.075 12 11.075ZM12 21.25C9.68333 20.7104 7.77083 19.4809 6.2625 17.5616C4.75417 15.6422 4 13.5108 4 11.1675V5.525L12 2.75L20 5.525V11.1675C20 13.5108 19.2458 15.6422 17.7375 17.5616C16.2292 19.4809 14.3167 20.7104 12 21.25ZM12 4.71563L6 6.79688V11.1675C6 12 6.125 12.8094 6.375 13.5956C6.625 14.3819 6.96667 15.1219 7.4 15.8156C8.1 15.4919 8.83333 15.2375 9.6 15.0525C10.3667 14.8675 11.1667 14.775 12 14.775C12.8333 14.775 13.6333 14.8675 14.4 15.0525C15.1667 15.2375 15.9 15.4919 16.6 15.8156C17.0333 15.1219 17.375 14.3819 17.625 13.5956C17.875 12.8094 18 12 18 11.1675V6.79688L12 4.71563ZM12 16.625C11.4 16.625 10.8167 16.6867 10.25 16.81C9.68333 16.9333 9.14167 17.1029 8.625 17.3188C9.10833 17.7813 9.63333 18.1821 10.2 18.5213C10.7667 18.8604 11.3667 19.1225 12 19.3075C12.6333 19.1225 13.2333 18.8604 13.8 18.5213C14.3667 18.1821 14.8917 17.7813 15.375 17.3188C14.8583 17.1029 14.3167 16.9333 13.75 16.81C13.1833 16.6867 12.6 16.625 12 16.625Z" fill="#262626"/>
</svg>
