<svg width="110" height="26" viewBox="0 0 110 26" fill="none" xmlns="http://www.w3.org/2000/svg">
<path d="M3.91849 18.6069V25.1185H0.562256V13.2826H3.70762V14.5441H3.74277C4.32264 13.3197 5.25395 12.8745 6.55427 12.8745V16.4364C5.0958 16.4735 3.91849 16.7703 3.91849 18.6069Z" fill="black"/>
<path d="M26.516 25.1183V23.8568H26.4808C25.901 25.1369 24.8291 25.5079 23.5639 25.5079C22.3339 25.5079 21.0863 25.0627 20.278 24.0052C19.3642 22.8179 19.2588 21.8347 19.2588 20.3506V13.2639H22.615V19.8126C22.615 21.1483 22.8962 22.1872 24.4073 22.1872C25.7955 22.1872 26.3227 21.1483 26.3227 19.7755V13.2639H29.6789V25.0998H26.516V25.1183Z" fill="black"/>
<path d="M37.5336 25.119V18.6445C37.5336 17.3274 37.2876 16.1957 35.7764 16.1957C34.2126 16.1957 33.8611 17.2717 33.8611 18.6631V25.1004H30.5049V13.2646H33.6327V14.5261H33.6678C34.3707 13.3017 35.3723 12.8564 36.7253 12.8564C37.6742 12.8564 38.8691 13.246 39.5895 13.8768C40.6614 14.8229 40.8899 16.307 40.8899 17.6984V25.1004H37.5336V25.119Z" fill="black"/>
<path d="M50.4489 25.1186V23.8386H50.4138C49.7109 25.1001 48.3755 25.5082 47.0576 25.5082C43.6135 25.5082 41.4346 22.6698 41.4346 19.1636C41.4346 15.7316 43.6135 12.8746 46.9873 12.8746C48.2876 12.8746 49.3771 13.3013 50.2732 14.2846V9.3313H53.6295V25.1186H50.4489ZM47.6374 16.1768C46.0208 16.1768 44.7908 17.4198 44.7908 19.145C44.7908 20.8703 45.9154 22.1875 47.6023 22.1875C49.2716 22.1875 50.4665 20.8889 50.4665 19.145C50.4665 17.4383 49.2541 16.1768 47.6374 16.1768Z" fill="black"/>
<path d="M57.8994 15.9542V25.1001H54.5432V9.31274H57.8994V13.2642H59.5161V15.9542H57.8994Z" fill="black"/>
<path d="M68.302 25.1185V23.8384H68.2669C67.6518 25.0628 66.2109 25.5266 64.9985 25.5266C61.5368 25.5266 59.3579 22.7068 59.3579 19.182C59.3579 15.7314 61.6247 12.8745 64.9985 12.8745C66.2285 12.8745 67.5991 13.3569 68.2669 14.5441H68.302V13.2826H71.6582V25.1185H68.302ZM65.4554 16.1767C63.8212 16.1767 62.679 17.5495 62.679 19.2191C62.679 20.8702 63.8915 22.2059 65.4729 22.2059C67.1071 22.2059 68.2844 20.8888 68.2844 19.182C68.302 17.4567 67.1071 16.1767 65.4554 16.1767Z" fill="black"/>
<path d="M79.0558 25.5268C77.8961 25.5268 76.42 25.0073 75.8401 23.8571H75.805V25.1186H72.5718V9.3313H75.928V14.2103C76.789 13.2271 77.9312 12.8746 79.1788 12.8746C79.9871 12.8746 80.7954 13.0973 81.551 13.4497C83.7124 14.5257 84.6964 16.6777 84.6964 19.1265C84.7139 22.6884 82.5526 25.5268 79.0558 25.5268ZM78.5989 16.1768C76.9999 16.1768 75.805 17.494 75.805 19.1636C75.805 20.8518 76.8945 22.206 78.5286 22.206C80.1453 22.206 81.3401 20.8703 81.3401 19.1821C81.3577 17.5682 80.1804 16.1768 78.5989 16.1768Z" fill="black"/>
<path d="M85.1709 25.1186V9.3313H88.5271V25.1186H85.1709Z" fill="black"/>
<path d="M100.757 20.2766H92.3401C92.551 21.6865 93.658 22.5213 94.9759 22.5213C95.8897 22.5213 96.4695 22.1317 97.0143 21.4082H100.458C99.4919 23.7828 97.5063 25.5081 94.9759 25.5081C91.7075 25.5081 89.0366 22.6883 89.0366 19.2377C89.0366 15.8056 91.6197 12.8745 94.9232 12.8745C98.3673 12.8745 100.845 15.7685 100.845 19.349C100.845 19.6458 100.81 19.9426 100.757 20.2766ZM94.9408 15.8428C93.7283 15.8428 92.6564 16.5848 92.3928 17.8649H97.4887C97.2251 16.6034 96.1532 15.8428 94.9408 15.8428Z" fill="black"/>
<path d="M105.431 25.5266C103.094 25.5266 101.126 24.2095 100.863 21.5937H104.201C104.307 22.3172 104.816 22.6883 105.466 22.6883C105.976 22.6883 106.644 22.3914 106.644 21.7792C106.644 20.9259 105.73 20.6661 105.133 20.4064C104.641 20.2395 104.166 20.0725 103.674 19.8684C102.339 19.349 101.003 18.44 101.003 16.7703C101.003 14.303 103.182 12.8745 105.343 12.8745C107.593 12.8745 109.42 14.0989 109.648 16.6034H106.363C106.345 15.9355 105.906 15.7129 105.308 15.7129C104.869 15.7129 104.359 15.9726 104.359 16.5106C104.359 18.3658 110 17.3269 110 21.501C110 24.1538 107.716 25.5266 105.431 25.5266Z" fill="black"/>
<path d="M12.5638 16.3441C14.0398 16.3441 15.2523 17.6056 15.2523 19.1825C15.2523 20.7408 14.0574 22.0209 12.5638 22.0209C11.0702 22.0209 9.8753 20.7594 9.8753 19.1825C9.89287 17.6242 11.0878 16.3441 12.5638 16.3441ZM12.5638 12.8564C9.26028 12.8564 6.58936 15.6763 6.58936 19.164C6.58936 22.6516 9.26028 25.4715 12.5638 25.4715C15.8673 25.4715 18.5382 22.6516 18.5382 19.164C18.5558 15.6948 15.8673 12.8564 12.5638 12.8564Z" fill="#00A3E1"/>
<path d="M4.74441 7.29104V6.34491H4.72684C4.28754 7.04987 3.53195 7.4209 2.74121 7.4209C1.21246 7.4209 0 6.21505 0 4.58252C0 2.96854 1.23003 1.7627 2.74121 1.7627C3.54952 1.7627 4.28754 2.11517 4.72684 2.83868H4.74441V1.89255H5.39457V7.27249H4.74441V7.29104ZM2.74121 2.39345C1.52875 2.39345 0.65016 3.33957 0.65016 4.61963C0.65016 5.88113 1.54633 6.8087 2.74121 6.8087C3.90096 6.8087 4.77955 5.80692 4.77955 4.61963C4.77955 3.39523 3.90096 2.39345 2.74121 2.39345Z" fill="black"/>
<path d="M10.4376 7.29083V6.45601H10.42C10.1213 7.12386 9.45357 7.42069 8.78584 7.42069C8.11811 7.42069 7.45038 7.17952 7.02865 6.62297C6.65964 6.14063 6.58936 5.49133 6.58936 4.89768V1.92944H7.23951V4.89768C7.23951 6.01077 7.6261 6.82704 8.78584 6.82704C9.20757 6.82704 9.54143 6.71573 9.85773 6.40036C10.297 5.95512 10.3849 5.41712 10.3849 4.78637V1.948H11.035V7.32793H10.4376V7.29083Z" fill="black"/>
<path d="M12.9856 4.13705V7.2908H12.3354V1.91087H12.9856V2.69003H13.0032C13.2843 2.00363 13.7763 1.81811 14.4441 1.78101V2.50452C13.5479 2.57873 12.9856 3.17237 12.9856 4.13705Z" fill="black"/>
<path d="M15.1821 1.24295V0H15.8323V1.24295H15.1821ZM15.1821 7.29074V1.9108H15.8323V7.29074H15.1821Z" fill="black"/>
<path d="M22.158 4.84224H17.519C17.5718 5.89968 18.5031 6.79015 19.4871 6.79015C20.2778 6.79015 21.0334 6.32636 21.3146 5.52865H21.9999C21.6309 6.64174 20.6293 7.4209 19.4871 7.4209C18.0111 7.4209 16.8337 6.1594 16.8337 4.60107C16.8337 3.0613 18.0111 1.7627 19.4695 1.7627C20.9631 1.7627 22.1404 3.0984 22.1404 4.63818C22.158 4.71238 22.158 4.76803 22.158 4.84224ZM19.5047 2.39345C18.4855 2.39345 17.6772 3.17261 17.519 4.23004H21.4903C21.3146 3.17261 20.5238 2.39345 19.5047 2.39345Z" fill="black"/>
<path d="M30.0654 7.29104V4.17439C30.0654 3.22826 29.6789 2.39345 28.6773 2.39345C27.6757 2.39345 27.2891 3.22826 27.2891 4.17439V7.29104H26.6389V4.17439C26.6389 3.22826 26.2523 2.39345 25.2507 2.39345C24.2491 2.39345 23.8626 3.22826 23.8626 4.17439V7.29104H23.2124V1.91111H23.8626V2.5233C24.1613 2.00386 24.6884 1.7627 25.2507 1.7627C25.9712 1.7627 26.6038 2.13372 26.9728 2.80157C27.3594 2.13372 27.9392 1.7627 28.6948 1.7627C29.9951 1.7627 30.7332 2.76448 30.7332 4.08163V7.27249H30.0654V7.29104Z" fill="black"/>
<path d="M38.8337 7.29104V4.17439C38.8337 3.22826 38.4472 2.39345 37.4456 2.39345C36.444 2.39345 36.0574 3.22826 36.0574 4.17439V7.29104H35.4072V4.17439C35.4072 3.22826 35.0207 2.39345 34.0191 2.39345C33.0175 2.39345 32.6309 3.22826 32.6309 4.17439V7.29104H31.9807V1.91111H32.6309V2.5233C32.9296 2.00386 33.4568 1.7627 34.0191 1.7627C34.7395 1.7627 35.3721 2.13372 35.7411 2.80157C36.1277 2.13372 36.7076 1.7627 37.4631 1.7627C38.7635 1.7627 39.5015 2.76448 39.5015 4.08163V7.27249H38.8337V7.29104Z" fill="black"/>
<path d="M45.2827 7.29104V6.34491H45.2652C44.8259 7.04987 44.0703 7.4209 43.2795 7.4209C41.7508 7.4209 40.5383 6.21505 40.5383 4.58252C40.5383 2.96854 41.7684 1.7627 43.2795 1.7627C44.0878 1.7627 44.8259 2.11517 45.2652 2.83868H45.2827V1.89255H45.9329V7.27249H45.2827V7.29104ZM43.2795 2.39345C42.0671 2.39345 41.1885 3.33957 41.1885 4.61963C41.1885 5.88113 42.0847 6.8087 43.2795 6.8087C44.4393 6.8087 45.3179 5.80692 45.3179 4.61963C45.3179 3.39523 44.4393 2.39345 43.2795 2.39345Z" fill="black"/>
</svg>
