<svg width="14" height="24" viewBox="0 0 14 24" fill="none" xmlns="http://www.w3.org/2000/svg">
<path d="M5.46829 13.0298H4.43715V3.83046L4.74477 3.21521C4.76883 3.16709 4.78086 3.11468 4.78086 3.0614V1.34371C4.78086 1.15381 4.62705 1 4.43715 1H2.37486C2.18496 1 2.03115 1.15381 2.03115 1.34371V3.06226C2.03115 3.11554 2.04318 3.16881 2.06724 3.21607L2.37485 3.83132V13.0306H1.34371C1.15381 13.0306 1 13.1845 1 13.3744V14.4055C1 14.5361 1.0739 14.6547 1.1899 14.7131L1.68742 14.9623V15.5689L1.1899 15.8181C1.07304 15.8765 1 15.9951 1 16.1257V21.6251C1 22.383 1.61697 22.9999 2.37485 22.9999H4.43714C5.19502 22.9999 5.81199 22.383 5.81199 21.6251V16.4693C5.81199 16.3782 5.7759 16.2906 5.71145 16.2261L5.12456 15.6393V14.963L5.62208 14.7138C5.73894 14.6554 5.81198 14.5368 5.81198 14.4062V13.3751C5.81198 13.1852 5.65817 13.0314 5.46827 13.0314L5.46829 13.0298ZM3.02611 3.59575L2.7185 2.9805V1.68643H4.09335V2.9805L3.78574 3.59575C3.76168 3.64387 3.74965 3.69628 3.74965 3.74956V13.0298H3.06222V3.74956C3.06222 3.69628 3.05017 3.64301 3.02611 3.59575ZM5.12449 14.1924L4.62697 14.4415C4.51011 14.5 4.43707 14.6186 4.43707 14.7492V15.7803C4.43707 15.8714 4.47316 15.959 4.53761 16.0235L5.1245 16.6104V21.6234C5.1245 22.0023 4.81603 22.3108 4.43708 22.3108H2.3748C1.99584 22.3108 1.68737 22.0023 1.68737 21.6234V16.3363L2.18489 16.0871C2.30175 16.0287 2.37479 15.9101 2.37479 15.7795V14.7483C2.37479 14.6177 2.30089 14.4992 2.18489 14.4407L1.68737 14.1915V13.7164H5.1245L5.12449 14.1924Z" fill="#262626" stroke="#262626" stroke-width="0.4"/>
<path d="M11.9985 17.1543V6.84302C12.863 6.19513 13.3734 5.17947 13.3734 4.09334C13.3734 2.79239 12.6413 1.62127 11.464 1.03614C11.3575 0.982865 11.2312 0.988881 11.1306 1.05161C11.0292 1.11434 10.9674 1.22518 10.9674 1.34376V3.40602H9.59252V1.34376C9.59252 1.22518 9.53065 1.11432 9.42925 1.05161C9.32786 0.988879 9.20241 0.982865 9.09586 1.03614C7.91863 1.62217 7.18652 2.79336 7.18652 4.09334C7.18652 5.17947 7.69694 6.19428 8.56138 6.84302V17.1543C7.69694 17.8022 7.18652 18.8179 7.18652 19.904C7.18652 21.205 7.91863 22.3761 9.09586 22.9612C9.20241 23.0145 9.32872 23.0085 9.42925 22.9457C9.53065 22.883 9.59252 22.7722 9.59252 22.6536V20.2475H10.9674V22.6536C10.9674 22.7722 11.0292 22.883 11.1306 22.9457C11.1856 22.9801 11.2492 22.9973 11.3111 22.9973C11.3635 22.9973 11.4159 22.9853 11.464 22.9612C12.6413 22.3752 13.3734 21.204 13.3734 19.904C13.3734 18.8179 12.863 17.8031 11.9985 17.1543ZM11.6548 22.0316V19.904C11.6548 19.7141 11.501 19.5603 11.3111 19.5603H9.2488C9.0589 19.5603 8.90509 19.7141 8.90509 19.904V22.0316C8.25805 21.5195 7.87395 20.7453 7.87395 19.904C7.87395 18.9846 8.33108 18.1305 9.09585 17.6174C9.19123 17.5538 9.2488 17.4464 9.2488 17.3321V6.66511C9.2488 6.54997 9.19209 6.44342 9.09585 6.37982C8.33108 5.8677 7.87395 5.01273 7.87395 4.09319C7.87395 3.25282 8.25805 2.47862 8.90509 1.96562V3.74948C8.90509 3.93938 9.0589 4.09319 9.2488 4.09319H11.3111C11.501 4.09319 11.6548 3.93938 11.6548 3.74948V1.96562C12.3018 2.47774 12.6859 3.25196 12.6859 4.09319C12.6859 5.01262 12.2288 5.86673 11.464 6.37982C11.3687 6.44341 11.3111 6.55082 11.3111 6.66511V17.3321C11.3111 17.4473 11.3678 17.5538 11.464 17.6174C12.2288 18.1295 12.6859 18.9845 12.6859 19.904C12.6859 20.7444 12.3018 21.5186 11.6548 22.0316Z" fill="#262626" stroke="#262626" stroke-width="0.4"/>
<path d="M2.71847 17.1543C2.52857 17.1543 2.37476 17.3081 2.37476 17.498V20.9351C2.37476 21.125 2.52857 21.2788 2.71847 21.2788C2.90837 21.2788 3.06218 21.125 3.06218 20.9351V17.498C3.06218 17.3081 2.90837 17.1543 2.71847 17.1543Z" fill="#262626" stroke="#262626" stroke-width="0.4"/>
<path d="M3.74951 17.498V20.9351C3.74951 21.125 3.90332 21.2788 4.09323 21.2788C4.28313 21.2788 4.43694 21.125 4.43694 20.9351V17.498C4.43694 17.3081 4.28313 17.1543 4.09323 17.1543C3.90332 17.1543 3.74951 17.3081 3.74951 17.498Z" fill="#262626" stroke="#262626" stroke-width="0.4"/>
</svg>
