<svg width="24" height="24" viewBox="0 0 24 24" fill="none" xmlns="http://www.w3.org/2000/svg">
<path d="M10.4683 13.0299H9.43715V3.83052L9.74477 3.21527C9.76883 3.16715 9.78086 3.11474 9.78086 3.06146V1.34377C9.78086 1.15387 9.62705 1.00006 9.43715 1.00006H7.37486C7.18496 1.00006 7.03115 1.15387 7.03115 1.34377V3.06232C7.03115 3.1156 7.04318 3.16887 7.06724 3.21613L7.37485 3.83138V13.0307H6.34371C6.15381 13.0307 6 13.1845 6 13.3744V14.4055C6 14.5362 6.0739 14.6547 6.1899 14.7132L6.68742 14.9623V15.569L6.1899 15.8182C6.07304 15.8766 6 15.9952 6 16.1258V21.6252C6 22.383 6.61697 23 7.37485 23H9.43714C10.195 23 10.812 22.383 10.812 21.6252V16.4694C10.812 16.3783 10.7759 16.2907 10.7115 16.2262L10.1246 15.6393V14.9631L10.6221 14.7139C10.7389 14.6555 10.812 14.5369 10.812 14.4063V13.3751C10.812 13.1852 10.6582 13.0314 10.4683 13.0314L10.4683 13.0299ZM8.02611 3.59581L7.7185 2.98056V1.6865H9.09335V2.98056L8.78574 3.59581C8.76168 3.64393 8.74965 3.69634 8.74965 3.74962V13.0299H8.06222V3.74962C8.06222 3.69634 8.05017 3.64307 8.02611 3.59581ZM10.1245 14.1924L9.62697 14.4416C9.51011 14.5 9.43707 14.6186 9.43707 14.7492V15.7803C9.43707 15.8714 9.47316 15.9591 9.53761 16.0235L10.1245 16.6104V21.6234C10.1245 22.0024 9.81603 22.3108 9.43708 22.3108H7.3748C6.99584 22.3108 6.68737 22.0024 6.68737 21.6234V16.3363L7.18489 16.0871C7.30175 16.0287 7.37479 15.9101 7.37479 15.7795V14.7484C7.37479 14.6178 7.30089 14.4992 7.18489 14.4408L6.68737 14.1916V13.7164H10.1245L10.1245 14.1924Z" fill="#262626" stroke="#262626" stroke-width="0.4"/>
<path d="M16.9986 17.1543V6.84302C17.863 6.19513 18.3734 5.17947 18.3734 4.09334C18.3734 2.79239 17.6413 1.62127 16.4641 1.03614C16.3576 0.982865 16.2312 0.988881 16.1307 1.05161C16.0293 1.11434 15.9674 1.22518 15.9674 1.34376V3.40602H14.5926V1.34376C14.5926 1.22518 14.5307 1.11432 14.4293 1.05161C14.3279 0.988879 14.2025 0.982865 14.0959 1.03614C12.9187 1.62217 12.1866 2.79336 12.1866 4.09334C12.1866 5.17947 12.697 6.19428 13.5615 6.84302V17.1543C12.697 17.8022 12.1866 18.8179 12.1866 19.904C12.1866 21.205 12.9187 22.3761 14.0959 22.9612C14.2025 23.0145 14.3288 23.0085 14.4293 22.9457C14.5307 22.883 14.5926 22.7722 14.5926 22.6536V20.2475H15.9674V22.6536C15.9674 22.7722 16.0293 22.883 16.1307 22.9457C16.1857 22.9801 16.2493 22.9973 16.3112 22.9973C16.3636 22.9973 16.416 22.9853 16.4641 22.9612C17.6413 22.3752 18.3734 21.204 18.3734 19.904C18.3734 18.8179 17.863 17.8031 16.9986 17.1543ZM16.6549 22.0316V19.904C16.6549 19.7141 16.5011 19.5603 16.3112 19.5603H14.2489C14.059 19.5603 13.9052 19.7141 13.9052 19.904V22.0316C13.2581 21.5195 12.874 20.7453 12.874 19.904C12.874 18.9846 13.3312 18.1305 14.0959 17.6174C14.1913 17.5538 14.2489 17.4464 14.2489 17.3321V6.66511C14.2489 6.54997 14.1922 6.44342 14.0959 6.37982C13.3312 5.8677 12.874 5.01273 12.874 4.09319C12.874 3.25282 13.2581 2.47862 13.9052 1.96562V3.74948C13.9052 3.93938 14.059 4.09319 14.2489 4.09319H16.3112C16.5011 4.09319 16.6549 3.93938 16.6549 3.74948V1.96562C17.3019 2.47774 17.686 3.25196 17.686 4.09319C17.686 5.01262 17.2289 5.86673 16.4641 6.37982C16.3687 6.44341 16.3112 6.55082 16.3112 6.66511V17.3321C16.3112 17.4473 16.3679 17.5538 16.4641 17.6174C17.2289 18.1295 17.686 18.9845 17.686 19.904C17.686 20.7444 17.3019 21.5186 16.6549 22.0316Z" fill="#262626" stroke="#262626" stroke-width="0.4"/>
<path d="M7.71848 17.1543C7.52858 17.1543 7.37477 17.3081 7.37477 17.498V20.9351C7.37477 21.125 7.52858 21.2788 7.71848 21.2788C7.90839 21.2788 8.0622 21.125 8.0622 20.9351V17.498C8.0622 17.3081 7.90839 17.1543 7.71848 17.1543Z" fill="#262626" stroke="#262626" stroke-width="0.4"/>
<path d="M8.74956 17.4979V20.935C8.74956 21.1249 8.90337 21.2787 9.09327 21.2787C9.28317 21.2787 9.43698 21.1249 9.43698 20.935V17.4979C9.43698 17.308 9.28317 17.1542 9.09327 17.1542C8.90337 17.1542 8.74956 17.308 8.74956 17.4979Z" fill="#262626" stroke="#262626" stroke-width="0.4"/>
</svg>
